<svg width="490" height="236" viewBox="0 0 490 236" fill="none" xmlns="http://www.w3.org/2000/svg">
<path d="M484.126 207.634C476.722 224.462 462.315 231.889 448.54 234.936H43.9107C5.71431 220.662 -14.611 116.854 42.0303 91.6006C73.0685 77.7618 94.4489 75.3596 100.483 53.5515C125.861 -38.1646 216.854 19.0342 250.531 9.40685C370.299 -24.8382 352.329 142.952 426.958 127.742C461.206 120.763 505.863 158.225 484.126 207.634Z" fill="#EBF2F9"/>
<path d="M281.571 157.241C281.571 157.241 268.267 167.139 265.672 166.538C263.078 165.938 275.396 155.855 275.396 155.855C270.761 153.625 256.352 155.023 256.352 155.023C256.352 155.023 251.552 170.505 249.186 169.285C246.819 168.064 254.135 155.793 254.135 155.793C248.972 155.481 242.64 159.316 242.64 159.316C233.972 166.164 243.21 176.945 243.21 176.945C243.21 176.945 241.431 182.275 235.957 187.128C235.957 187.128 228.139 192.912 227.595 203.246L229.014 203.373C229.014 203.373 231.264 193.747 235.352 189.195C235.511 189.03 235.741 188.795 236.024 188.509C236.024 188.509 236.024 188.509 236.025 188.509C236.693 187.89 237.16 187.425 237.474 187.081C239.509 185.125 242.319 182.636 243.674 182.394C243.674 182.394 243.606 182.145 243.616 181.713C243.634 181.931 243.653 182.155 243.674 182.394C244.137 187.843 254.705 192.602 261.206 193.58C267.707 194.559 265.697 191.886 263.457 187.922C261.217 183.958 254.129 182.185 252.511 180.359C250.894 178.534 254.238 178.529 258.155 180.319C262.072 182.109 262.608 186.881 268.892 189.891C275.176 192.901 284.63 182.47 284.63 182.47C279.622 182.216 272.471 176.776 272.73 175.111C272.989 173.447 284.869 177.983 286.9 178.201C288.931 178.418 293.552 175.891 294.267 167.708C294.982 159.524 281.571 157.241 281.571 157.241Z" fill="#82B378"/>
<path d="M210.911 163.387C210.911 163.387 225.606 155.155 218.748 143.983C218.748 143.983 213.262 137.122 207.384 135.358C207.384 135.358 210.519 152.019 207.384 152.411C204.249 152.803 205.228 133.594 205.228 133.594C205.228 133.594 189.75 126.146 183.675 126.734C183.675 126.734 193.276 143.003 190.141 142.611C187.006 142.218 176.23 125.754 176.23 125.754C176.23 125.754 160.359 122.814 157.812 132.222C155.265 141.631 159.379 146.335 161.731 146.923C164.082 147.511 179.169 147.315 178.777 149.275C178.385 151.235 168.197 154.371 162.514 152.607C162.514 152.607 168.784 168.091 177.014 167.307C185.243 166.523 187.79 161.427 192.884 161.035C197.979 160.643 201.701 162.015 199.154 163.387C196.607 164.759 187.986 163.836 183.871 167.336C179.757 170.835 176.426 172.991 184.067 174.559C191.709 176.127 205.424 175.147 208.167 169.267C210.91 163.387 210.911 163.387 210.911 163.387Z" fill="#A8D29F"/>
<path d="M214.829 177.695C210.715 170.051 210.911 163.387 210.911 163.387C206.208 148.49 165.062 135.162 165.062 135.162C217.376 156.331 208.167 169.267 208.167 169.267C209.577 170.089 211.691 174.012 213.158 177.022C213.367 177.534 213.698 178.243 214.189 179.205C214.389 179.64 214.548 179.996 214.658 180.245C217.352 186.987 215.925 198.629 215.925 198.629L217.557 199.068C221.175 187.334 214.829 177.695 214.829 177.695Z" fill="#82B378"/>
<path d="M234.289 152.034C234.289 152.034 214.918 141.182 223.958 126.455C223.958 126.455 231.19 117.412 238.938 115.087C238.938 115.087 234.806 137.048 238.938 137.565C243.071 138.082 241.78 112.761 241.78 112.761C241.78 112.761 262.184 102.943 270.19 103.719C270.19 103.719 257.535 125.163 261.667 124.646C265.8 124.13 280.005 102.427 280.005 102.427C280.005 102.427 300.926 98.5512 304.283 110.953C307.641 123.355 302.217 129.555 299.118 130.331C296.018 131.106 276.131 130.847 276.647 133.431C277.164 136.015 290.594 140.149 298.085 137.823C298.085 137.823 289.82 158.234 278.972 157.201C268.124 156.167 264.766 149.45 258.051 148.933C251.336 148.416 246.428 150.225 249.786 152.034C253.144 153.842 264.508 152.626 269.932 157.239C275.356 161.852 279.746 164.694 269.674 166.761C259.601 168.827 241.521 167.536 237.905 159.784C234.289 152.034 234.289 152.034 234.289 152.034Z" fill="#A8D29F"/>
<path d="M294.727 114.829C294.727 114.829 240.488 132.398 234.289 152.034C234.289 152.034 234.548 160.818 229.124 170.895C229.124 170.895 220.759 183.601 225.528 199.068L227.68 198.49C227.68 198.49 225.799 183.143 229.349 174.256C229.495 173.929 229.705 173.459 229.967 172.885C230.615 171.617 231.051 170.683 231.327 170.008C233.26 166.04 236.047 160.869 237.905 159.785C237.905 159.785 225.766 142.732 294.727 114.829Z" fill="#82B378"/>
<path d="M201.997 150.206C201.997 150.206 234.057 141.045 242.11 149.761C249.164 157.395 268.295 187.617 269.302 205.505C270.28 222.886 251.889 234.314 232.97 234.314H199.369L201.997 150.206Z" fill="#F1A34F"/>
<path d="M179.809 159.113C179.809 159.113 225.136 138.515 233.722 151.97C238.28 159.114 250.825 187.617 251.751 205.505C252.651 222.886 235.739 234.314 218.341 234.314H187.441L179.809 159.113Z" fill="#D16E24"/>
<path d="M90.4358 95.7457C90.4358 95.7457 146.817 94.2189 168.339 94.2665C179.411 94.2911 179.137 102.675 184.456 112.389C195.111 131.844 212.801 165.309 211.394 170.538C209.39 177.982 133.916 183.136 128.573 181.418C123.23 179.7 90.4358 95.7457 90.4358 95.7457Z" fill="#E78B37"/>
<path opacity="0.4" d="M134.582 110.824C134.582 110.824 135.346 99.7539 132.674 100.708C130.003 101.663 113.022 117.123 115.693 153.578L123.516 160.258L183.236 150.333L134.582 110.824Z" fill="#C44F00"/>
<path d="M210.5 155.691L190.386 165.631C190.386 165.631 173.149 102.235 172.004 97.4004C171.495 95.2456 169.923 94.4669 168.339 94.2663C171.126 94.0125 173.155 93.9934 173.155 93.9934C178.642 93.9934 183.519 97.49 185.28 102.687C189.121 114.023 196.194 134.926 203.358 156.217C205.232 155.467 207.462 154.606 209.924 153.721L210.5 155.691Z" fill="#F1A34F"/>
<path d="M170.241 159.125C170.241 159.125 235.244 153.366 243.258 161.044C246.979 164.609 249.068 180.751 250.239 197.023C251.699 217.32 235.255 234.688 215.028 234.398L144.559 234.43L170.241 159.125Z" fill="#DF812F"/>
<path d="M145.91 80.6684C144.048 80.2509 142.117 80.7332 140.812 81.2181C141.046 80.7599 141.68 80.4254 141.68 80.4254C140.819 80.5547 139.228 81.9347 139.228 81.9347C126.41 81.0175 129.764 98.4607 131.203 102.312C132.64 106.163 134.048 110.671 129.398 115.94C120.247 126.307 133.443 135.493 133.443 135.493C133.547 135.519 141.369 142.687 141.369 142.687C140.111 139.604 149.63 118.399 155.731 111.055C156.754 107.752 155.939 102.716 155.872 102.321C156.721 106.251 156.722 108.601 156.506 109.991C161.152 102.067 150.844 81.7739 145.91 80.6684Z" fill="#B5453C"/>
<path d="M195.066 111.11C195.256 110.824 196.878 105.862 198.595 105.957C200.313 106.052 202.984 106.339 203.652 106.148C204.319 105.957 206.559 104.266 206.943 104.669C207.897 105.671 205.75 108.772 204.224 109.249C202.698 109.726 200.217 109.011 199.645 109.583C199.072 110.156 199.168 112.208 199.168 112.208L195.066 111.11Z" fill="#FFB27D"/>
<path d="M240.471 220.948C240.284 222.973 243.102 223.465 246.366 223.628C249.63 223.791 248.644 224.459 253.116 225.27C257.589 226.08 259.382 224.856 259.705 224.251C259.994 223.715 257.914 222.876 255.698 221.928C255.419 221.809 255.14 221.687 254.861 221.565C252.366 220.468 250.967 218.231 249.022 216.156C247.18 214.191 245.432 207.899 245.432 207.899L239.353 206.6C239.353 206.6 241.06 212.263 241.652 214.681C242.001 216.102 241.487 217.692 241.03 218.903C240.784 219.561 240.536 220.235 240.471 220.948Z" fill="#FFB27D"/>
<path d="M246.366 223.628C249.63 223.791 248.644 224.459 253.116 225.27C257.589 226.08 259.382 224.856 259.705 224.251C259.994 223.715 257.914 222.876 255.698 221.928L255.664 221.965C255.664 221.965 252.518 223.034 248.889 222.046C245.93 221.243 243.069 219.474 241.03 218.902C240.784 219.561 240.536 220.235 240.471 220.948C240.284 222.973 243.102 223.465 246.366 223.628Z" fill="#C65447"/>
<path d="M179.945 148.847C179.945 148.847 220.334 145.806 227.938 150.607C235.542 155.408 247.737 211.323 247.737 211.323C247.737 211.323 246.984 211.927 245.303 212.109C243.74 212.278 240.296 211.359 240.296 211.359C240.296 211.359 222.771 186.34 221.536 180.037C220.302 173.734 220.603 168.11 217.792 167.959C214.981 167.809 179.939 172.221 174.639 162.88C169.339 153.539 173.72 144.293 173.72 144.293L179.945 148.847Z" fill="#AA413E"/>
<path d="M199.097 117.107C196.352 124.063 189.719 135.398 188.006 135.827C186.562 136.188 179.5 134.575 173.763 132.617C170.405 131.47 167.503 130.205 166.446 129.147C163.584 126.284 154.163 109.464 154.163 109.464C154.163 109.464 163.011 108.343 167.209 110.824C171.407 113.305 181.519 124.757 183.045 124.376C184.572 123.994 191.822 111.206 194.684 110.061C194.684 110.061 199.073 109.106 200.217 112.16C200.505 112.927 200.021 114.769 199.097 117.107Z" fill="#699DEE"/>
<path d="M225.016 227.437C224.83 229.462 227.648 229.955 230.911 230.117C234.175 230.28 233.189 230.949 237.661 231.759C242.134 232.569 243.927 231.345 244.25 230.74C244.539 230.204 242.459 229.365 240.243 228.417C239.964 228.299 239.685 228.177 239.406 228.055C236.912 226.958 235.512 224.72 233.568 222.645C231.726 220.68 229.977 214.388 229.977 214.388L223.898 213.09C223.898 213.09 225.605 218.753 226.198 221.17C226.546 222.592 226.032 224.182 225.575 225.392C225.33 226.05 225.081 226.724 225.016 227.437Z" fill="#FFB27D"/>
<path d="M230.911 230.117C234.175 230.28 233.189 230.949 237.662 231.759C242.134 232.569 243.927 231.345 244.251 230.74C244.539 230.204 242.459 229.365 240.243 228.417L240.209 228.455C240.209 228.455 237.064 229.523 233.434 228.536C230.475 227.732 227.614 225.963 225.576 225.392C225.33 226.05 225.082 226.724 225.017 227.437C224.83 229.462 227.648 229.955 230.911 230.117Z" fill="#C65447"/>
<path d="M199.097 117.107C196.352 124.063 189.72 135.398 188.006 135.827C186.562 136.188 179.5 134.575 173.763 132.617C171.388 130.59 169.93 128.838 169.691 128.481C169.88 128.552 183.255 133.625 185.907 132.487C188.311 131.457 195.115 119.842 199.097 117.107Z" fill="#4A75CB"/>
<path d="M155.356 111.443C155.399 111.448 152.266 114.519 149.232 114.609C146.378 114.695 143.614 111.804 143.648 111.785C144.696 111.223 144.55 109.591 142.514 103.009L143.049 102.954L152.041 102.043C152.041 102.043 152.663 104.772 153.425 107.288C154.064 109.401 154.804 111.365 155.356 111.443Z" fill="#FFB27D"/>
<path d="M152.041 102.043C152.041 102.043 152.663 104.771 153.425 107.288C148.639 108.604 144.809 105.04 143.049 102.954L152.041 102.043Z" fill="#E2915A"/>
<path d="M172.034 151.351C172.034 151.351 207.914 153.05 215.325 158.143C222.736 163.236 232.746 219.584 232.746 219.584C232.746 219.584 231.97 220.158 230.283 220.274C228.715 220.383 225.31 219.33 225.31 219.33C225.31 219.33 208.771 193.648 207.783 187.302C206.794 180.955 207.314 175.348 204.511 175.087C201.708 174.827 166.522 177.872 161.589 168.332C156.656 158.791 172.034 151.351 172.034 151.351Z" fill="#C65447"/>
<path d="M141.891 102.298C141.891 102.298 138.205 99.127 136.582 95.9486C135.424 93.6794 133.93 84.4124 143.256 82.9639C143.256 82.9639 145.928 82.4271 148.871 83.3299C151.211 84.0479 154.874 86.0222 154.113 94.7392L154.1 97.6094L141.891 102.298Z" fill="#B5453C"/>
<path d="M172.233 154.404C171.918 154.406 171.476 154.385 170.957 154.345C168.86 154.185 165.517 153.736 164.347 153.387C154.475 150.436 144.991 146.796 140.951 134.011C140.463 132.464 140.055 130.785 139.734 128.957L141.274 123.085L144.277 110.693C144.277 110.693 147.971 112.668 151.403 111.907C153.161 111.515 154.162 109.465 154.162 109.465C154.162 109.465 172.742 116.741 179.039 131.82C185.335 146.898 187.497 144.608 189.405 147.852C191.313 151.097 182.855 154.341 172.233 154.404Z" fill="#699DEE"/>
<path d="M154.353 103.94C154.353 103.94 143.183 107.555 141.039 100.562C138.896 93.5685 136.011 89.3252 143.052 86.7215C150.093 84.1179 152.304 86.3594 153.586 88.5196C154.869 90.6798 157.203 102.82 154.353 103.94Z" fill="#FFB27D"/>
<path d="M148.113 84.9883C148.113 84.9883 147.545 94.1345 143.198 96.789C138.851 99.4435 136.418 98.8043 136.418 98.8043C136.418 98.8043 139.159 94.8235 138.378 89.5747C138.378 89.5747 144.602 81.7904 148.113 84.9883Z" fill="#B5453C"/>
<path d="M147.555 85.8874C147.555 85.8874 150.41 87.0185 151.513 88.6289C152.617 90.2394 153.988 93.8296 155.018 93.3786C155.018 93.3786 155.631 87.0927 152.065 84.7322C148.284 82.2289 147.555 85.8874 147.555 85.8874Z" fill="#B5453C"/>
<path d="M170.957 154.345C168.86 154.185 165.517 153.736 164.348 153.387C154.476 150.436 144.991 146.796 140.952 134.011C140.936 133.917 140.919 133.824 140.902 133.728L142.272 132.65C145.073 130.445 148.851 129.941 152.134 131.327C159.933 134.621 170.644 140.593 170.957 154.345Z" fill="#4A75CB"/>
<path d="M144.277 110.693C144.277 110.693 132.738 112.427 130.83 119.671C128.922 126.915 127.226 150.581 128.943 152.45C130.661 154.32 135.791 152.152 136.936 151.217C138.08 150.282 143.995 126.214 143.995 126.214C143.995 126.214 146.888 115.335 144.277 110.693Z" fill="#699DEE"/>
<path d="M161.846 143.954C161.846 143.954 168.483 142.669 169.233 142.991C169.982 143.312 174.157 147.06 173.729 147.81C173.301 148.56 171.588 149.095 169.661 148.452C167.734 147.81 163.558 147.489 162.809 146.525C162.06 145.561 161.846 143.954 161.846 143.954Z" fill="#FFB27D"/>
<path d="M163.63 143.026C163.63 143.026 137.722 142.598 131.513 146.667C131.513 146.667 127.873 150.416 128.943 152.45C130.014 154.485 133.333 154.164 134.831 154.057C136.33 153.95 162.559 147.952 162.559 147.952C162.559 147.952 165.557 145.704 163.63 143.026Z" fill="#699DEE"/>
<path d="M141.578 150.206C141.578 150.206 171.061 141.045 178.466 149.761C184.953 157.395 202.546 187.617 203.472 205.505C204.372 222.886 187.459 234.314 170.061 234.314H139.161L141.578 150.206Z" fill="#F1A34F"/>
<path d="M185.919 205.505C184.993 187.617 172.448 159.114 167.889 151.97C161.238 141.547 132.541 151.558 119.944 156.6C112.78 135.308 105.706 114.405 101.866 103.07C100.105 97.8712 95.2282 94.3749 89.7412 94.3749C89.7412 94.3749 69.2556 91.3477 66.0854 118.649C55.9376 206.042 64.0913 234.223 100.493 234.441C105.058 234.468 113.981 234.387 121.607 234.301L121.608 234.314H152.508C169.906 234.314 186.819 222.886 185.919 205.505Z" fill="#F1A34F"/>
<path d="M185.919 205.447C184.992 187.507 172.449 158.922 167.889 151.757C162.228 142.858 140.591 148.809 126.51 153.895C124.049 154.784 121.818 155.647 119.945 156.399C112.78 135.046 105.707 114.081 101.866 102.713C100.105 97.5005 95.2284 93.9935 89.7411 93.9935C89.7411 93.9935 87.7129 94.0126 84.9254 94.2673C84.9234 94.2673 84.9234 94.2673 84.9216 94.2673C80.4303 94.677 73.9735 95.6992 70.8788 98.2392C68.78 99.9621 67.3375 107.521 66.0859 118.339C63.1267 143.891 61.7242 164.399 62.1229 180.633C62.327 188.96 63.0063 196.161 64.1931 202.346C65.023 206.678 66.1011 210.51 67.4423 213.877C73.2521 228.485 83.9579 234.369 100.493 234.469C102.414 234.48 105.108 234.472 108.153 234.453C112.341 234.426 117.191 234.377 121.606 234.327L121.608 234.34H152.508C169.906 234.341 186.82 222.878 185.919 205.447Z" fill="#D16E24"/>
<path d="M119.604 155.205C114.955 157.032 109.802 159.056 105.632 160.693C101.556 145.691 89.5393 101.41 88.5903 97.4001C88.0818 95.2455 86.5094 94.4663 84.9255 94.267C87.7126 94.0127 89.7418 93.9932 89.7418 93.9932C95.2284 93.9932 100.105 97.4908 101.867 102.688C105.646 113.843 112.556 134.266 119.604 155.205Z" fill="#F1A34F"/>
<path opacity="0.4" d="M129.095 169.441C126.916 162.909 113.341 164.95 113.341 164.95C113.341 164.95 104.123 176.382 101.44 176.653C98.7596 176.926 106.972 165.631 106.972 165.631C101.776 165.223 88.5346 170.393 88.5346 170.393C88.5346 170.393 89.3741 183.731 86.6915 183.46C84.0109 183.187 86.6915 171.618 86.6915 171.618C81.664 172.844 76.9703 177.608 76.9703 177.608C71.1052 185.365 83.675 191.081 83.675 191.081C83.675 191.081 83.8429 195.708 80.3226 201.015C80.3226 201.015 75.8979 206.472 77.3175 213.529H73.4232C74.1693 208.45 71.0459 204.598 71.0459 204.598C68.3766 200.571 68.5045 197.061 68.5045 197.061C68.5045 197.061 78.0388 192.724 73.5892 186.84C73.5892 186.84 70.0289 183.225 66.2148 182.297C66.2148 182.297 68.2488 191.071 66.2148 191.279C64.1808 191.485 64.8162 181.368 64.8162 181.368C64.8162 181.368 63.7267 180.942 62.1221 180.381C62.3263 188.684 63.0055 195.864 64.1923 202.031C65.3714 201.557 66.2758 200.939 66.7241 200.158C66.8004 200.023 66.8749 199.895 66.9455 199.771C66.8386 200.027 66.7241 200.158 66.7241 200.158C67.6381 200.592 69.0099 202.659 69.962 204.243C70.0976 204.514 70.3131 204.886 70.6299 205.39C70.7596 205.621 70.8645 205.81 70.9351 205.942C72.0342 208.173 72.076 211.421 71.9559 213.528H57.8176V214.141H58.64C58.9415 222.274 65.2225 229.183 74.0338 232.073H61.3265C59.6474 232.073 58.2869 233.178 58.2869 234.541H108.213C108.213 234.371 108.192 234.205 108.152 234.044C107.87 232.92 106.645 232.073 105.176 232.073H92.4687C101.28 229.183 107.559 222.274 107.862 214.141H108.435V213.528H82.1906C82.7972 212.448 83.5376 211.391 84.4058 210.62C84.507 210.536 84.6405 210.425 84.8028 210.291C85.2321 209.969 85.5315 209.727 85.7357 209.545C87.056 208.515 88.8839 207.199 89.7634 207.073C89.7634 207.073 89.7196 206.942 89.7272 206.713C89.7387 206.829 89.7519 206.947 89.7634 207.073C90.065 209.942 96.9224 212.45 101.141 212.965C105.36 213.481 104.056 212.072 102.602 209.984C101.148 207.896 96.5483 206.963 95.4989 206.001C94.4495 205.039 96.619 205.037 99.1622 205.98C101.704 206.923 102.051 209.436 106.128 211.02C110.206 212.607 116.342 207.113 116.342 207.113C113.093 206.978 108.452 204.113 108.62 203.237C108.788 202.359 116.496 204.749 117.815 204.863C119.133 204.978 122.131 203.647 122.594 199.336C123.06 195.026 114.357 193.824 114.357 193.824C114.357 193.824 112.35 195.036 110.084 196.255C109.637 195.784 108.91 195.263 108.061 194.681C108.809 194.142 109.482 193.68 109.9 193.396C110.738 193.581 111.652 193.723 112.671 193.803C119.709 194.346 125.073 183.595 125.073 183.595C120.213 184.82 111.497 182.643 111.161 181.282C110.826 179.921 123.731 180.057 125.742 179.648C127.755 179.24 131.274 175.974 129.095 169.441ZM86.0199 195.162C86.0028 195.141 85.8596 194.969 85.7279 194.652C85.8216 194.816 85.9189 194.982 86.0199 195.162ZM84.7569 209.566C84.7569 209.566 82.4483 210.956 80.8379 213.529H79.1721C78.966 210.826 78.886 206.003 80.4696 202.787C80.563 202.613 80.6986 202.367 80.8703 202.063C81.0801 201.729 81.2557 201.439 81.4026 201.187C81.5475 200.937 81.662 200.725 81.7517 200.548C83.0071 198.458 84.816 195.734 86.0219 195.164C86.3195 195.683 86.7736 196.149 87.3461 196.563C85.0565 200.027 89.464 204.203 89.464 204.203C89.464 204.203 88.3095 207.011 84.7569 209.566ZM103.27 192.43C99.666 191.623 95.3196 191.774 93.7303 191.081C91.5513 190.127 94.7358 189.174 99.0937 189.447C102.026 189.63 103.972 191.291 107.075 192.524C105.867 192.438 104.533 192.417 103.27 192.43Z" fill="#C44F00"/>
<path d="M81.5932 197.166C81.5932 197.166 75.5985 190.169 81.2236 185.726C81.2236 185.726 85.3325 183.237 88.6826 183.44C88.6826 183.44 83.9354 191.403 85.4711 192.195C87.0068 192.987 90.1214 182.94 90.1214 182.94C90.1214 182.94 99.4715 182.033 102.479 183.48C102.479 183.48 94.4862 190.023 96.1697 190.413C97.8532 190.802 106.487 184.38 106.487 184.38C106.487 184.38 115.189 185.861 114.725 191.172C114.261 196.482 111.263 198.122 109.945 197.981C108.627 197.84 100.917 194.896 100.749 195.976C100.582 197.056 105.222 200.586 108.472 200.751C108.472 200.751 102.336 207.52 98.2589 205.567C94.1813 203.613 93.8333 200.517 91.2916 199.355C88.7497 198.194 86.58 198.197 87.6294 199.381C88.6788 200.566 93.279 201.717 94.7326 204.289C96.1862 206.861 97.4903 208.596 93.2717 207.961C89.0528 207.326 82.1953 204.238 81.8944 200.702C81.5935 197.166 81.5932 197.166 81.5932 197.166Z" fill="#82B378"/>
<path d="M110.449 191.315C110.449 191.315 86.8131 190.404 81.5932 197.166C81.5932 197.166 80.4388 200.624 76.8866 203.773C76.8866 203.773 71.8132 207.527 71.4609 214.233L72.3818 214.315C72.3818 214.315 73.8417 208.069 76.4942 205.115C76.5975 205.008 76.7473 204.855 76.9324 204.668C77.3627 204.27 77.6626 203.971 77.8662 203.748C79.1867 202.478 81.0144 200.858 81.8945 200.701C81.8942 200.702 79.6022 192.324 110.449 191.315Z" fill="#82B378"/>
<path d="M60.6337 188.367C60.6337 188.367 70.1698 183.025 65.7196 175.775C65.7196 175.775 62.1595 171.324 58.3451 170.179C58.3451 170.179 60.3795 180.99 58.3451 181.244C56.3106 181.499 56.9464 169.034 56.9464 169.034C56.9464 169.034 46.9018 164.201 42.9602 164.583C42.9602 164.583 49.1904 175.139 47.156 174.885C45.1217 174.631 38.1286 163.947 38.1286 163.947C38.1286 163.947 27.8296 162.039 26.1768 168.144C24.5238 174.249 27.194 177.302 28.7198 177.683C30.2455 178.065 40.0358 177.938 39.7817 179.21C39.5275 180.482 32.9156 182.517 29.2285 181.372C29.2285 181.372 33.2972 191.42 38.6374 190.911C43.9777 190.402 45.6305 187.096 48.9365 186.841C52.2422 186.587 54.6581 187.477 53.0052 188.368C51.3522 189.258 45.7577 188.659 43.0877 190.93C40.4175 193.201 38.2561 194.6 43.2148 195.617C48.1735 196.635 57.0739 195.999 58.8539 192.183C60.6337 188.367 60.6337 188.367 60.6337 188.367Z" fill="#A8D29F"/>
<path d="M63.1767 197.652C60.5066 192.692 60.6337 188.367 60.6337 188.367C57.5822 178.701 30.8811 170.052 30.8811 170.052C64.8295 183.789 58.8534 192.183 58.8534 192.183C59.7683 192.717 61.1401 195.262 62.092 197.216C62.2276 197.548 62.4423 198.008 62.7612 198.632C62.8904 198.914 62.9937 199.145 63.0651 199.307C64.8132 203.682 63.8872 211.237 63.8872 211.237L64.9466 211.521C67.2943 203.907 63.1767 197.652 63.1767 197.652Z" fill="#82B378"/>
<path d="M75.8049 181C75.8049 181 63.2346 173.958 69.1007 164.401C69.1007 164.401 73.7937 158.533 78.8218 157.024C78.8218 157.024 76.14 171.276 78.8218 171.611C81.5034 171.946 80.6653 155.515 80.6653 155.515C80.6653 155.515 93.9061 149.144 99.1017 149.647C99.1017 149.647 90.8892 163.563 93.5709 163.228C96.2525 162.893 105.471 148.809 105.471 148.809C105.471 148.809 119.047 146.294 121.226 154.342C123.404 162.389 119.885 166.413 117.874 166.916C115.862 167.419 102.957 167.252 103.292 168.928C103.627 170.605 112.342 173.287 117.203 171.778C117.203 171.778 111.84 185.024 104.8 184.353C97.761 183.682 95.5822 179.323 91.2245 178.988C86.8667 178.653 83.6822 179.826 85.8612 181C88.04 182.174 95.4146 181.384 98.9343 184.378C102.454 187.371 105.303 189.215 98.7667 190.557C92.2301 191.898 80.4979 191.06 78.1513 186.03C75.8049 181 75.8049 181 75.8049 181Z" fill="#A8D29F"/>
<path d="M115.024 156.856C115.024 156.856 79.8273 168.258 75.8048 181C75.8048 181 75.9724 186.7 72.4527 193.239C72.4527 193.239 67.0248 201.484 70.1193 211.521L71.5157 211.146C71.5157 211.146 70.2951 201.188 72.5991 195.421C72.6934 195.208 72.8295 194.903 73.0001 194.531C73.4205 193.708 73.7034 193.102 73.8822 192.664C75.1371 190.089 76.9454 186.734 78.1512 186.03C78.1512 186.03 70.2739 174.964 115.024 156.856Z" fill="#82B378"/>
<path d="M50.7581 208.656C50.7581 222.259 61.7823 233.287 75.3812 233.287C88.9802 233.287 100.004 222.259 100.004 208.656H50.7581Z" fill="#699DEE"/>
<path d="M81.4404 233.099C80.4387 233.224 79.4177 233.287 78.3811 233.287C64.7823 233.287 53.759 222.259 53.759 208.655H59.8762C59.8762 221.223 69.2848 231.592 81.4404 233.099Z" fill="#A1C7FF"/>
<path d="M97.3067 231.502H53.4559C51.7781 231.502 50.418 232.862 50.418 234.541H100.344C100.344 232.862 98.9845 231.502 97.3067 231.502Z" fill="#4A75CB"/>
<path d="M100.564 208.656H49.9482V209.411H100.564V208.656Z" fill="#4A75CB"/>
<path d="M372.302 161.053V184.707C372.302 188.863 371.129 192.225 369.678 192.225H323.373C321.921 192.225 320.748 188.863 320.748 184.707V161.053C320.748 156.897 324.84 153.048 336.843 153.182L369.678 153.535C371.129 153.535 372.302 156.897 372.302 161.053Z" fill="#F1A34F"/>
<path d="M378.437 161.053V184.707C378.437 188.863 377.264 192.225 375.812 192.225H329.508C328.056 192.225 326.883 188.863 326.883 184.707V161.053C326.883 156.897 331.242 152.915 337.91 153.048L375.812 153.535C377.264 153.535 378.437 156.897 378.437 161.053Z" fill="#E78B37"/>
<path d="M367.02 132.683C367.65 131.289 366.704 73.0635 380.896 73.7607C395.088 74.4579 421.579 75.1552 421.579 75.1552C421.579 75.1552 433.563 76.2012 426.31 104.791C419.056 133.38 420.633 178.706 420.633 178.706H368.281L367.02 132.683Z" fill="#F1A34F"/>
<path d="M416.213 104.796C415.338 108.211 414.612 111.861 413.972 115.639C411.411 130.944 410.622 148.384 410.43 161.042C410.28 171.502 410.536 178.695 410.536 178.695H358.193L356.934 132.673C357.553 131.286 356.614 73.0537 370.804 73.7583C378.059 74.121 388.536 74.4628 397.029 74.7401C398.096 74.7615 399.142 74.8041 400.144 74.8255C406.717 75.018 411.497 75.1458 411.497 75.1458C411.497 75.1458 423.468 76.1918 416.213 104.796Z" fill="#E78B37"/>
<path d="M383.334 221.593V190.88C383.334 189.578 382.246 188.489 380.944 188.489H380.923C380.496 188.489 380.091 188.617 379.749 188.831C379.024 189.236 378.533 190.005 378.533 190.88V221.635C378.44 221.65 378.348 221.665 378.256 221.682C371.385 222.75 365.794 227.787 363.916 234.383H398.207C396.276 227.621 390.464 222.503 383.334 221.593Z" fill="#D16E24"/>
<path opacity="0.4" d="M413.929 114.721C412.649 95.0828 402.385 78.2836 400.144 74.8255L377.654 72.6003C377.654 72.6003 360.316 84.0738 364.584 128.233C366.784 151.005 376.171 136.09 384.748 116.301L382.988 159.185C382.988 159.185 403.922 160.615 410.43 161.042C410.622 148.384 411.412 130.944 413.972 115.639C413.972 115.34 413.951 115.02 413.929 114.721Z" fill="#C44F00"/>
<path d="M379.75 188.831C379.024 189.236 378.533 190.005 378.533 190.88V228.513C378.533 229.409 379.024 230.178 379.75 230.562C380.454 230.157 380.945 229.388 380.945 228.513V190.88C380.945 190.005 380.454 189.236 379.75 188.831Z" fill="#F1A34F"/>
<path d="M378.256 221.682C371.385 222.75 365.794 227.787 363.916 234.383H392.595C390.718 227.787 385.148 222.75 378.256 221.682Z" fill="#F1A34F"/>
<path d="M421.381 181.338L420.197 188.136C420.197 189.587 420.208 192.225 418.756 192.225H337.243C335.792 192.225 334.618 191.051 334.618 189.599V181.338C334.618 179.887 335.792 178.713 337.243 178.713H418.756C420.208 178.713 421.381 179.887 421.381 181.338Z" fill="#F1A34F"/>
<path d="M323.33 229.435C323.479 230.161 323.629 230.908 323.586 231.677C323.479 232.104 323.202 232.424 322.796 232.68L322.412 233.406C322.007 233.598 321.025 233.747 319.766 233.875L319.745 233.278C319.574 233.278 319.404 233.278 319.233 233.299V233.278C317.739 233.299 315.883 233.427 313.621 234.323C313.6 234.323 313.578 234.345 313.557 234.345C313.152 234.366 312.746 234.388 312.383 234.409H306.878C304.232 234.025 303.186 232.958 302.994 232.424C302.994 232.274 304.979 231.293 306.622 230.823C306.643 230.823 306.686 230.802 306.75 230.802C306.985 230.716 307.433 230.545 307.54 230.524C307.838 230.417 308.18 230.332 308.478 230.247C311.231 229.435 313.088 227.6 315.264 225.572C317.761 223.245 321.154 212.871 320.706 212.679L326.318 213.404C326.318 213.404 321.815 222.413 322.178 225.209C322.327 226.447 322.775 227.493 323.074 228.56C323.095 228.603 323.095 228.667 323.117 228.71C323.181 228.859 323.223 229.009 323.266 229.158C323.287 229.265 323.309 229.35 323.33 229.435Z" fill="#EF9A60"/>
<path d="M393.954 151.531L369.817 150.544C369.817 150.544 333.108 152.915 329.995 158.252L316.151 223.024C316.151 223.024 316.918 224.058 319.518 224.503C320.893 224.739 323.886 224.058 323.886 224.058C323.886 224.058 341.813 201.126 344.118 186.729C346.044 174.697 346.806 173.44 353.399 173.689C359.994 173.939 380.227 175.533 389.842 173.67C399.456 171.808 393.954 151.531 393.954 151.531Z" fill="#233862"/>
<path d="M323.693 231.079C323.693 231.293 323.671 231.506 323.586 231.677C323.479 232.104 323.202 232.424 322.796 232.68C322.754 232.723 322.711 232.744 322.669 232.765C322.669 232.765 322.669 232.765 322.647 232.765C322.626 232.787 322.604 232.787 322.583 232.808C321.879 233.235 320.94 233.235 319.745 233.278H319.233C317.739 233.299 315.883 233.427 313.621 234.323C313.6 234.323 313.578 234.345 313.557 234.345C313.493 234.366 313.45 234.388 313.386 234.409H304.061C302.781 233.897 302.525 233.086 302.397 232.787C302.29 232.552 302.589 232.296 303.165 232.018C303.208 231.997 303.272 231.975 303.314 231.933C304.125 231.57 305.342 231.186 306.643 230.759C306.665 230.78 306.707 230.78 306.75 230.802C307.625 231.1 310.676 232.061 314.261 231.378C317.249 230.802 320.215 229.393 322.498 228.71C322.69 228.667 322.882 228.603 323.074 228.56C323.117 228.539 323.159 228.539 323.202 228.518C323.245 228.603 323.266 228.71 323.287 228.795C323.501 229.521 323.693 230.289 323.693 231.079Z" fill="#365DA4"/>
<path d="M322.924 232.445L322.796 232.68L322.412 233.406L321.879 234.409H319.254V233.875L319.233 233.299V233.043L322.775 232.467L322.924 232.445Z" fill="#365DA4"/>
<path d="M331.51 229.435C331.659 230.161 331.809 230.908 331.766 231.677C331.659 232.104 331.382 232.424 330.976 232.68L330.592 233.406C330.187 233.598 329.205 233.747 327.946 233.875L327.925 233.278C327.754 233.278 327.583 233.278 327.413 233.299V233.278C325.919 233.299 324.062 233.427 321.801 234.323C321.779 234.323 321.758 234.345 321.737 234.345C321.331 234.366 320.926 234.388 320.563 234.409H315.057C312.411 234.025 311.366 232.958 311.174 232.424C311.174 232.274 313.159 231.293 314.801 230.823C314.823 230.823 314.866 230.802 314.93 230.802C315.164 230.716 315.612 230.545 315.719 230.524C316.018 230.417 316.359 230.332 316.658 230.247C319.411 229.435 321.267 227.6 323.444 225.572C325.94 223.245 329.333 212.871 328.885 212.679L334.497 213.404C334.497 213.404 329.995 222.413 330.357 225.209C330.507 226.447 330.955 227.493 331.254 228.56C331.275 228.603 331.275 228.667 331.296 228.71C331.36 228.859 331.403 229.009 331.446 229.158C331.467 229.265 331.488 229.35 331.51 229.435Z" fill="#FFB27D"/>
<path d="M379.311 91.6227L377.432 99.0811L367.568 138.071C367.192 138.659 364.051 139.901 360.576 141.067C356.439 142.451 351.818 143.756 350.944 143.679C349.343 143.549 348.459 140.205 348.914 139.262C349.209 138.64 354.484 135.841 358.609 133.331C360.911 131.931 362.852 130.624 363.389 129.846C364.358 128.403 366.769 115.127 368.732 105.412C369.734 100.428 370.629 96.3772 371.147 95.3153C372.46 92.5441 377.575 91.795 378.961 91.652C379.182 91.6231 379.311 91.6227 379.311 91.6227Z" fill="#466AA5"/>
<path d="M400.338 151.553L376.202 150.566C376.202 150.566 339.493 152.937 336.379 158.274L323.586 224.324C323.586 224.324 325.819 225.087 327.22 225.192C329.454 225.358 330.988 224.625 330.988 224.625C330.988 224.625 348.197 201.148 350.502 186.751C352.428 174.719 353.19 173.462 359.784 173.712C366.378 173.961 386.612 175.556 396.226 173.693C405.84 171.83 400.338 151.553 400.338 151.553Z" fill="#2B478B"/>
<path d="M331.873 231.079C331.873 231.293 331.851 231.506 331.766 231.677C331.659 232.104 331.382 232.424 330.976 232.68C330.934 232.723 330.891 232.744 330.848 232.765C330.848 232.765 330.848 232.765 330.827 232.765C330.805 232.787 330.784 232.787 330.763 232.808C330.059 233.235 329.12 233.235 327.925 233.278H327.413C325.919 233.299 324.062 233.427 321.801 234.323C321.779 234.323 321.758 234.345 321.737 234.345C321.672 234.366 321.63 234.388 321.566 234.409H312.241C310.96 233.897 310.704 233.086 310.577 232.787C310.47 232.552 310.769 232.296 311.345 232.018C311.387 231.997 311.451 231.975 311.494 231.933C312.305 231.57 313.521 231.186 314.823 230.759C314.844 230.78 314.887 230.78 314.93 230.802C315.804 231.1 318.856 232.061 322.441 231.378C325.428 230.802 328.394 229.393 330.678 228.71C330.87 228.667 331.062 228.603 331.254 228.56C331.297 228.539 331.339 228.539 331.382 228.518C331.425 228.603 331.446 228.71 331.467 228.795C331.681 229.521 331.873 230.289 331.873 231.079Z" fill="#466AA5"/>
<path d="M331.104 232.445L330.976 232.68L330.592 233.406L330.059 234.409H327.434V233.875L327.413 233.299V233.043L330.955 232.467L331.104 232.445Z" fill="#466AA5"/>
<path d="M391.385 81.1396C402.96 80.2598 405.224 56.4946 391.453 59.3887C391.453 59.3887 389.523 58.1269 388.568 58.1143C388.568 58.1143 389.306 58.3833 389.628 58.8455C388.14 58.5129 385.832 57.9733 384.015 59.0044C365.393 69.5722 386.898 81.4806 391.385 81.1396Z" fill="#163560"/>
<path d="M378.323 93.7931C378.277 93.8056 382.13 96.6735 385.436 96.3208C388.544 95.9916 391.115 92.4456 391.076 92.4302C389.856 91.9752 389.773 90.1831 391.007 82.7399L390.419 82.7598L380.527 83.1041C380.527 83.1041 380.256 86.1565 379.802 88.9997C379.422 91.387 378.91 93.6269 378.323 93.7931Z" fill="#FFB27D"/>
<path d="M377.432 99.0811L367.568 138.071C367.192 138.659 364.051 139.901 360.576 141.067C360.282 140.349 360.004 139.525 359.741 138.618C359.213 136.802 358.83 135.032 358.609 133.331C360.911 131.931 362.852 130.624 363.389 129.846C364.358 128.403 366.769 115.127 368.732 105.412C373.154 101.069 377.327 98.9341 377.327 98.9341L377.432 99.0811Z" fill="#2B478B"/>
<path d="M380.527 83.1039C380.527 83.1039 380.256 86.1563 379.802 88.9995C385.19 89.7182 388.817 85.2839 390.419 82.7598L380.527 83.1039Z" fill="#EF9A60"/>
<path d="M391.578 81.8766C391.578 81.8766 395.108 77.8902 396.398 74.2013C397.319 71.5677 397.568 61.2919 387.235 61.102C387.235 61.102 384.256 60.9154 381.197 62.331C378.765 63.4567 375.082 66.1414 377.199 75.4863L377.637 78.5985L391.578 81.8766Z" fill="#163560"/>
<path d="M378.3 85.5047C378.3 85.5047 390.955 87.7719 392.245 79.8668C393.535 71.9618 396.037 66.9306 388.012 65.1488C379.987 63.3671 377.921 66.1264 376.849 68.6601C375.777 71.194 375.042 84.7112 378.3 85.5047Z" fill="#FFB27D"/>
<path d="M382.264 64.0179C382.264 64.0179 384.235 73.8571 389.345 76.0932C394.454 78.3293 396.998 77.2753 396.998 77.2753C396.998 77.2753 393.435 73.3622 393.506 67.5517C393.506 67.5517 385.601 60.0281 382.264 64.0179Z" fill="#163560"/>
<path d="M383.004 64.9106C383.004 64.9106 380.073 66.5606 379.115 68.4715C378.156 70.3823 377.2 74.4809 376.015 74.1441C376.015 74.1441 374.419 67.415 377.939 64.3255C381.671 61.0494 383.004 64.9106 383.004 64.9106Z" fill="#163560"/>
<path d="M401.334 163.55C400.328 165.355 398.143 165.498 395.397 164.706C394.072 164.34 392.635 163.739 391.127 163.04C390.99 162.953 390.828 162.884 390.687 162.818C386.24 160.648 381.279 157.378 377.402 154.89C369.276 149.679 368.738 152.598 366.329 149.72C366.329 149.72 368.805 147.116 365.629 116.694C364.727 107.984 379.311 91.6228 379.311 91.6228C379.311 91.6228 379.409 97.0231 391.07 92.427C391.484 92.2776 394.671 99.1524 397.455 107.454C397.91 108.782 398.341 110.127 398.746 111.49C400.687 117.925 402.127 124.646 401.737 129.319C401.644 130.428 401.459 131.436 401.15 132.272C401.116 132.353 401.081 132.434 401.046 132.515C397.044 142.137 404.209 158.35 401.334 163.55Z" fill="#466AA5"/>
<path d="M361.213 125.536L339.72 123.999L348.924 149.067L369.051 151.155L361.213 125.536Z" fill="#B64C41"/>
<path d="M361.022 125.807L339.53 124.27L348.733 149.338L368.86 151.426L361.022 125.807Z" fill="#D6716B"/>
<path d="M359.088 125.385C359.088 125.385 359.605 122.136 357.775 122.07C355.944 122.003 354.874 125.178 354.874 125.178L359.088 125.385Z" fill="#B2CBFD"/>
<path d="M355.648 128.325C356.159 130.636 359.116 134.417 358.938 136.33L345.201 136.152C345.201 136.152 345.29 135.262 342.356 128.947C341.15 126.351 342.578 121.659 343.815 121.553L357.771 122.065C357.771 122.065 354.652 123.822 355.648 128.325Z" fill="#D2E9FF"/>
<path d="M339.72 123.999L339.53 124.27L340.004 124.3L339.962 124.133L339.72 123.999Z" fill="#B64C41"/>
<path d="M368.86 151.426L369.051 151.155L368.688 150.874L368.86 151.426Z" fill="#B64C41"/>
<path d="M401.334 163.55C400.328 165.355 398.143 165.498 395.397 164.706C394.072 164.34 392.635 163.739 391.127 163.041C385.786 159.58 380.068 154.046 376.858 145.178C369.645 125.26 397.382 110.837 397.382 110.837L398.747 111.49C400.687 117.925 402.127 124.646 401.737 129.318C401.644 130.428 401.459 131.436 401.15 132.272C401.116 132.353 401.081 132.434 401.046 132.515C397.044 142.137 404.209 158.35 401.334 163.55Z" fill="#2B478B"/>
<path d="M377.771 131.244L376.901 130.626L368.561 142.375L369.431 142.993L377.771 131.244Z" fill="#D16E24"/>
<path d="M368.551 142.351L368.484 143.397L369.421 142.969L368.551 142.351Z" fill="#F1A34F"/>
<path d="M379.673 137.287C379.673 137.287 375.911 135.724 374.003 136.163C372.094 136.602 368.212 137.879 368.383 138.928C368.553 139.976 372.711 141.195 374.662 140.49C376.614 139.786 377.736 141.261 380.042 140.886C382.349 140.512 379.673 137.287 379.673 137.287Z" fill="#FFB27D"/>
<path d="M391.076 92.4302C391.076 92.4302 402.922 94.4423 404.397 97.565C405.872 100.688 404.892 133.416 403.972 136.871C403.051 140.326 383.918 141.953 378.187 141.745C378.187 141.745 377.285 137.859 378.357 135.69C379.429 133.521 393.59 131.178 394.753 129.564C395.915 127.951 392.428 108.058 392.879 104.167C393.329 100.275 391.076 92.4302 391.076 92.4302Z" fill="#466AA5"/>
<path d="M344.659 138.537C344.659 138.537 348.571 138.158 348.041 139.761C347.511 141.365 346.035 142.139 346.035 142.139C346.035 142.139 343.01 139.959 344.659 138.537Z" fill="#FFB27D"/>
<path d="M415.246 161.053V184.707C415.246 188.863 414.073 192.225 412.622 192.225H366.317C364.866 192.225 363.692 188.863 363.692 184.707V161.053C363.692 156.897 367.384 152.781 380.054 153.535H412.622C414.073 153.535 415.246 156.897 415.246 161.053Z" fill="#F1A34F"/>
<path d="M421.381 161.053V184.707C421.381 188.863 420.208 192.225 418.756 192.225H372.452C371.001 192.225 369.827 188.863 369.827 184.707V161.053C369.827 156.897 373.786 153.182 383.122 153.535L416.197 153.315C421.398 153.315 421.381 156.897 421.381 161.053Z" fill="#DF812F"/>
<path d="M470.09 171.514H409.886C408.454 171.514 407.282 172.686 407.282 174.118V175.052C407.282 176.484 408.454 177.656 409.886 177.656H437.652L439.21 225.333C431.531 225.575 425.188 229.382 423.517 234.431H456.458C454.801 229.421 448.544 225.638 440.948 225.342L442.328 177.656H470.09C471.522 177.656 472.693 176.484 472.693 175.052V174.118C472.693 172.686 471.522 171.514 470.09 171.514Z" fill="#4A75CB"/>
<path d="M436.204 166.505C435.821 166.268 435.075 166.36 434.534 166.474V165.691C434.534 165.518 434.522 165.347 434.501 165.18H426.393C426.372 165.347 426.36 165.518 426.36 165.691V167.282C426.36 169.531 428.199 171.371 430.447 171.371C431.664 171.371 432.761 170.831 433.512 169.979L433.511 169.98C433.511 169.98 435.44 169.505 436.046 168.786C436.651 168.066 436.848 166.902 436.204 166.505ZM435.776 167.976C435.572 168.506 434.652 168.79 434.198 168.901C434.379 168.483 434.492 168.03 434.524 167.555C434.804 167.172 435.246 166.947 435.571 167.006C435.86 167.059 436.035 167.306 435.776 167.976Z" fill="#699DEE"/>
<path d="M427.024 165.69V167.282C427.024 169.53 428.863 171.372 431.11 171.372C431.296 171.372 431.48 171.358 431.659 171.332C429.669 171.063 428.122 169.344 428.122 167.282V165.69C428.122 165.517 428.134 165.346 428.156 165.179H427.057C427.035 165.346 427.024 165.517 427.024 165.69Z" fill="#AFCDFB"/>
<path d="M432.112 171.014H428.776V171.514H432.112V171.014Z" fill="#699DEE"/>
<path d="M457.676 166.505C457.293 166.268 456.547 166.36 456.006 166.474V165.691C456.006 165.518 455.994 165.347 455.973 165.18H447.865C447.844 165.347 447.832 165.518 447.832 165.691V167.282C447.832 169.531 449.671 171.371 451.919 171.371C453.136 171.371 454.233 170.831 454.983 169.979L454.983 169.98C454.983 169.98 456.912 169.505 457.518 168.786C458.123 168.066 458.32 166.902 457.676 166.505ZM457.248 167.976C457.043 168.506 456.124 168.79 455.67 168.901C455.851 168.483 455.964 168.03 455.996 167.555C456.276 167.172 456.718 166.947 457.042 167.006C457.332 167.059 457.507 167.306 457.248 167.976Z" fill="#699DEE"/>
<path d="M448.496 165.69V167.282C448.496 169.53 450.335 171.372 452.582 171.372C452.768 171.372 452.952 171.358 453.131 171.332C451.141 171.063 449.594 169.344 449.594 167.282V165.69C449.594 165.517 449.606 165.346 449.627 165.179H448.529C448.507 165.346 448.496 165.517 448.496 165.69Z" fill="#AFCDFB"/>
<path d="M453.584 171.014H450.248V171.514H453.584V171.014Z" fill="#699DEE"/>
<path d="M481.006 235.487H0.891049C0.626756 235.487 0.4104 235.271 0.4104 235.006V234.889C0.4104 234.625 0.626756 234.408 0.891049 234.408H481.006C481.27 234.408 481.487 234.625 481.487 234.889V235.006C481.486 235.271 481.27 235.487 481.006 235.487Z" fill="#283250"/>
</svg>
