<?xml version="1.0" encoding="utf-8"?>
<!-- Generator: Adobe Illustrator 27.5.0, SVG Export Plug-In . SVG Version: 6.00 Build 0)  -->
<svg version="1.1" xmlns="http://www.w3.org/2000/svg" xmlns:xlink="http://www.w3.org/1999/xlink" x="0px" y="0px"
	 viewBox="0 0 500 500" style="enable-background:new 0 0 500 500;" xml:space="preserve">
<g id="Background_Complete">
	<g>
		<g>
			<path style="fill:#EBEBEB;" d="M209.086,106.712c0.994-7.224-9.2-13.166-16.861-13.783c-3.653-0.295-7.448,0.264-10.909-0.942
				c-7.498-2.613-10.494-12.301-17.81-15.387c-5.47-2.307-11.768-0.253-17.07,2.416c-5.303,2.669-10.544,6.028-16.468,6.407
				c-5.153,0.33-10.75-1.581-15.258,0.936c-3.36,1.876-5.12,5.747-8.217,8.031c-3.03,2.235-6.981,2.708-10.74,2.912
				c-3.759,0.205-7.651,0.242-11.073,1.81c-3.423,1.567-6.254,5.187-5.544,8.883L209.086,106.712z"/>
		</g>
		<g>
			<path style="fill:#EBEBEB;" d="M112.359,161.055c-0.127,0.067-3.027-5.217-6.476-11.801c-3.45-6.586-6.143-11.977-6.015-12.044
				c0.127-0.067,3.026,5.216,6.476,11.802C109.794,155.596,112.487,160.988,112.359,161.055z"/>
		</g>
		<g>
			<path style="fill:#EBEBEB;" d="M162.759,178.735c-0.127,0.067-3.027-5.218-6.476-11.801c-3.45-6.586-6.143-11.977-6.015-12.044
				c0.127-0.067,3.026,5.216,6.476,11.802C160.194,173.276,162.887,178.668,162.759,178.735z"/>
		</g>
		<g>
			<path style="fill:#EBEBEB;" d="M213.16,196.415c-0.128,0.067-3.027-5.217-6.476-11.801c-3.45-6.586-6.143-11.977-6.015-12.044
				c0.127-0.067,3.027,5.216,6.476,11.802C210.594,190.956,213.287,196.349,213.16,196.415z"/>
		</g>
		<g>
			<path style="fill:#EBEBEB;" d="M263.56,214.095c-0.127,0.067-3.027-5.217-6.476-11.801c-3.45-6.586-6.143-11.977-6.015-12.044
				c0.127-0.067,3.026,5.216,6.476,11.802C260.994,208.636,263.687,214.029,263.56,214.095z"/>
		</g>
		<g>
			<path style="fill:#EBEBEB;" d="M313.96,231.776c-0.128,0.067-3.027-5.217-6.476-11.801c-3.45-6.586-6.143-11.977-6.015-12.044
				c0.127-0.067,3.026,5.216,6.476,11.802C311.394,226.316,314.087,231.709,313.96,231.776z"/>
		</g>
		<g>
			<path style="fill:#EBEBEB;" d="M364.36,249.456c-0.127,0.067-3.027-5.217-6.476-11.801c-3.45-6.586-6.142-11.977-6.015-12.044
				c0.127-0.067,3.026,5.216,6.476,11.802C361.794,243.997,364.487,249.389,364.36,249.456z"/>
		</g>
		<g>
			<path style="fill:#EBEBEB;" d="M325.918,194.705c-0.128,0.067-3.027-5.217-6.476-11.801c-3.45-6.586-6.143-11.977-6.015-12.044
				c0.127-0.067,3.027,5.216,6.476,11.802C323.353,189.246,326.046,194.638,325.918,194.705z"/>
		</g>
		<g>
			<path style="fill:#EBEBEB;" d="M222.35,262.936c-0.128,0.067-3.027-5.217-6.476-11.801c-3.45-6.586-6.142-11.977-6.015-12.044
				s3.027,5.216,6.476,11.802C219.784,257.477,222.477,262.87,222.35,262.936z"/>
		</g>
		<g>
			<path style="fill:#EBEBEB;" d="M156.462,230.665c-0.127,0.067-3.027-5.217-6.476-11.801c-3.45-6.586-6.142-11.977-6.015-12.044
				c0.127-0.067,3.026,5.216,6.476,11.802C153.897,225.206,156.59,230.598,156.462,230.665z"/>
		</g>
		<g>
			<path style="fill:#EBEBEB;" d="M271.03,169.151c-0.127,0.067-3.027-5.217-6.476-11.801c-3.45-6.586-6.142-11.977-6.015-12.044
				c0.127-0.067,3.027,5.216,6.476,11.802C268.464,163.691,271.157,169.084,271.03,169.151z"/>
		</g>
		<g>
			<path style="fill:#EBEBEB;" d="M332.164,148.02c-0.127,0.067-3.027-5.217-6.476-11.801c-3.45-6.586-6.143-11.977-6.015-12.044
				c0.127-0.067,3.026,5.216,6.476,11.802C329.598,142.561,332.291,147.954,332.164,148.02z"/>
		</g>
		<g>
			<path style="fill:#EBEBEB;" d="M383.258,143.872c-0.127,0.067-3.027-5.217-6.476-11.801c-3.45-6.586-6.143-11.977-6.015-12.044
				c0.127-0.067,3.026,5.216,6.476,11.802C380.692,138.413,383.385,143.805,383.258,143.872z"/>
		</g>
		<g>
			<path style="fill:#EBEBEB;" d="M334.732,96.095c-0.127,0.067-3.027-5.218-6.476-11.801c-3.45-6.586-6.142-11.977-6.015-12.044
				c0.127-0.067,3.026,5.216,6.476,11.802C332.166,90.636,334.859,96.028,334.732,96.095z"/>
		</g>
		<g>
			<path style="fill:#EBEBEB;" d="M216.141,143.597c-0.127,0.067-3.027-5.217-6.476-11.801c-3.45-6.586-6.143-11.977-6.015-12.044
				c0.127-0.067,3.026,5.216,6.476,11.802C213.576,138.137,216.269,143.53,216.141,143.597z"/>
		</g>
		<g>
			<path style="fill:#EBEBEB;" d="M247.228,103.788c-0.128,0.067-3.027-5.217-6.476-11.801c-3.45-6.586-6.143-11.977-6.015-12.044
				c0.127-0.067,3.027,5.216,6.476,11.802C244.662,98.329,247.355,103.721,247.228,103.788z"/>
		</g>
		<g>
			<path style="fill:#EBEBEB;" d="M162.759,131.674c-0.127,0.067-3.027-5.217-6.476-11.801c-3.45-6.586-6.143-11.977-6.015-12.044
				c0.127-0.067,3.026,5.216,6.476,11.802C160.194,126.215,162.887,131.607,162.759,131.674z"/>
		</g>
		<g>
			<path style="fill:#F5F5F5;" d="M370.185,74.129c1.14-8.281-10.547-15.092-19.328-15.8c-4.188-0.338-8.537,0.302-12.505-1.08
				c-8.596-2.996-12.029-14.101-20.416-17.638c-6.27-2.645-13.489-0.29-19.568,2.769s-12.086,6.91-18.877,7.344
				c-5.907,0.378-12.322-1.813-17.491,1.073c-3.851,2.15-5.869,6.588-9.419,9.206c-3.473,2.562-8.003,3.104-12.312,3.338
				c-4.309,0.235-8.77,0.278-12.693,2.074c-3.924,1.796-7.17,5.945-6.355,10.183L370.185,74.129z"/>
		</g>
		<g>
			<path style="fill:#FAFAFA;" d="M336.264,125.721c0.682-4.955-6.311-9.031-11.565-9.454c-2.506-0.202-5.108,0.181-7.482-0.646
				c-5.143-1.793-7.198-8.437-12.216-10.554c-3.752-1.582-8.071-0.174-11.709,1.657c-3.637,1.831-7.232,4.134-11.296,4.395
				c-3.535,0.226-7.373-1.085-10.466,0.642c-2.305,1.287-3.512,3.942-5.636,5.509c-2.078,1.533-4.789,1.857-7.367,1.997
				c-2.578,0.14-5.248,0.166-7.595,1.241c-2.348,1.075-4.29,3.557-3.803,6.093L336.264,125.721z"/>
		</g>
	</g>
	<path style="fill:#EBEBEB;" d="M112.664,453.843c8.677,13.274,27.101,19.179,41.878,13.421c6.974-2.717,12.913-7.607,19.803-10.532
		c9.449-4.011,20.165-4.083,30.284-2.355c10.118,1.728,19.852,5.162,29.717,7.999c22.066,6.346,44.98,9.736,67.938,10.052
		c14.302,0.196,28.903-0.859,42.167-6.213c13.264-5.354,25.13-15.55,29.721-29.097c0,0-269.491-1.504-270.995,0
		c-1.504,1.504-3.209,3.209-3.209,3.209L112.664,453.843z"/>
	<g>
		<g>
			<g>
				<g>
					<g>
						<path style="fill:#F5F5F5;" d="M115.182,416.216c20.801-9.821,29.124-33.208,32.079-55.002
							c0.494-3.638,1.54-7.383,0.361-10.85c-1.181-3.466-4.826-6.319-8.324-5.346c-2.902,0.807-4.604,3.732-6.547,6.06
							c-2.585,3.098-6.048,5.435-9.863,6.657c-2.507,0.803-5.481,1.048-7.541-0.593c-2.827-2.253-2.46-6.626-1.825-10.22
							c1.184-6.698,2.368-13.396,3.551-20.092c0.635-3.593,1.271-7.265,0.734-10.87c-0.537-3.605-2.469-7.197-5.728-8.739
							c-3.26-1.541-7.827-0.289-9.15,3.109c-0.55,1.414-0.511,2.986-0.865,4.462c-0.354,1.477-1.331,3.01-2.821,3.185
							c-1.508,0.177-2.773-1.088-3.669-2.324c-3.095-4.265-4.817-9.373-6.379-14.427c-1.562-5.054-3.036-10.207-5.731-14.743
							c-2.694-4.536-6.82-8.469-11.922-9.638c-5.103-1.169-11.133,1.076-13.297,5.912c-2.169,4.849-0.087,10.499,2.434,15.152
							c3.739,6.905,8.473,13.253,14.005,18.785c0.997,0.998,2.078,2.077,2.284,3.483c0.373,2.531-2.305,4.526-4.807,4.911
							c-2.834,0.436-5.696-0.338-8.557-0.485c-2.861-0.147-6.111,0.572-7.623,3.043c-2.1,3.426,0.319,7.804,2.915,10.843
							c5.198,6.087,11.436,11.259,18.357,15.219c2.481,1.419,5.122,2.743,6.939,4.965c1.817,2.224,2.554,5.676,0.834,7.99
							c-1.722,2.317-5.169,2.564-7.854,1.578c-2.683-0.985-4.909-2.913-7.381-4.36c-4.626-2.708-11.068-3.455-14.963,0.279
							c-2.559,2.454-3.409,6.333-2.926,9.861c0.482,3.527,2.126,6.774,3.939,9.82c6.34,10.646,15.209,19.857,26,25.787
							C92.632,415.556,103.075,418.443,115.182,416.216"/>
					</g>
				</g>
			</g>
		</g>
		<g>
			<g>
				<g>
					<g>
						<g>
							<path style="fill:#E0E0E0;" d="M111.902,401.679c-1.327-11.478-3.824-23.94-6.884-36.884
								c-0.777-3.233-1.545-6.427-2.301-9.576c-0.763-3.141-1.519-6.256-2.446-9.257c-1.83-6.012-4.047-11.652-6.319-16.939
								c-2.27-5.291-4.618-10.229-6.846-14.83c-2.24-4.598-4.408-8.845-6.549-12.631c-4.259-7.592-8.412-13.297-11.423-17.097
								c-1.501-1.906-2.714-3.346-3.55-4.311c-0.403-0.459-0.719-0.82-0.957-1.092c-0.219-0.243-0.335-0.363-0.343-0.356
								c-0.01,0.008,0.089,0.143,0.291,0.401c0.225,0.282,0.525,0.657,0.906,1.134c0.801,0.993,1.98,2.459,3.449,4.387
								c2.942,3.845,7.02,9.572,11.214,17.171c2.109,3.79,4.247,8.039,6.461,12.641c2.205,4.609,4.531,9.548,6.781,14.832
								c2.25,5.282,4.446,10.906,6.257,16.886c0.918,2.986,1.664,6.074,2.427,9.223c0.755,3.147,1.521,6.34,2.297,9.571
								c3.057,12.934,5.567,25.361,6.924,36.801"/>
						</g>
					</g>
				</g>
			</g>
		</g>
		<g>
			<g>
				<g>
					<g>
						<g>
							<path style="fill:#E0E0E0;" d="M100.085,345.904c0.043,0.015,0.259-0.511,0.613-1.475c0.358-0.962,0.83-2.37,1.388-4.119
								c1.119-3.495,2.499-8.375,4-13.76c1.502-5.389,2.947-10.234,4.116-13.703c0.58-1.736,1.063-3.137,1.409-4.1
								c0.341-0.966,0.51-1.509,0.467-1.528c-0.043-0.018-0.293,0.492-0.709,1.431c-0.422,0.936-0.975,2.316-1.612,4.037
								c-1.289,3.44-2.813,8.285-4.315,13.678c-1.468,5.318-2.795,10.129-3.81,13.805c-0.468,1.658-0.865,3.055-1.183,4.176
								C100.174,345.335,100.04,345.889,100.085,345.904z"/>
						</g>
					</g>
				</g>
			</g>
		</g>
		<g>
			<g>
				<g>
					<g>
						<g>
							<path style="fill:#E0E0E0;" d="M55.306,329.383c-0.009,0.046,0.636,0.234,1.807,0.535c1.169,0.308,2.862,0.744,4.937,1.35
								c4.158,1.179,9.845,3.008,16.031,5.301c6.184,2.305,11.692,4.629,15.626,6.424c1.975,0.884,3.553,1.643,4.648,2.16
								c1.092,0.522,1.707,0.791,1.729,0.75c0.022-0.042-0.553-0.39-1.611-0.987c-1.06-0.59-2.611-1.417-4.565-2.36
								c-3.894-1.912-9.392-4.314-15.594-6.627c-6.204-2.299-11.937-4.063-16.14-5.126c-2.097-0.548-3.814-0.916-5.004-1.144
								C55.979,329.438,55.317,329.336,55.306,329.383z"/>
						</g>
					</g>
				</g>
			</g>
		</g>
		<g>
			<g>
				<g>
					<g>
						<g>
							<path style="fill:#E0E0E0;" d="M111.478,400.731c0.019,0.013,0.161-0.162,0.413-0.51c0.291-0.416,0.646-0.924,1.076-1.539
								c0.928-1.34,2.221-3.315,3.786-5.775c3.134-4.918,7.249-11.849,11.686-19.557c4.44-7.712,8.485-14.671,11.512-19.647
								c1.479-2.418,2.697-4.406,3.602-5.885c0.389-0.642,0.709-1.172,0.971-1.607c0.215-0.371,0.32-0.572,0.301-0.586
								c-0.02-0.012-0.161,0.164-0.414,0.511c-0.291,0.416-0.645,0.922-1.076,1.537c-0.928,1.34-2.221,3.314-3.786,5.775
								c-3.134,4.918-7.249,11.849-11.688,19.56c-4.439,7.709-8.484,14.667-11.51,19.645c-1.48,2.417-2.697,4.406-3.602,5.883
								c-0.389,0.642-0.709,1.173-0.972,1.607C111.563,400.517,111.459,400.718,111.478,400.731z"/>
						</g>
					</g>
				</g>
			</g>
		</g>
		<g>
			<g>
				<g>
					<g>
						<g>
							<path style="fill:#E0E0E0;" d="M53.392,370.455c-0.01,0.021,0.186,0.143,0.567,0.355c0.453,0.243,1.009,0.541,1.683,0.902
								c1.558,0.815,3.66,1.916,6.218,3.254c5.25,2.749,12.457,6.628,20.416,10.926c7.96,4.3,15.211,8.117,20.519,10.757
								c2.654,1.321,4.812,2.368,6.318,3.061c0.697,0.316,1.272,0.576,1.739,0.788c0.401,0.173,0.617,0.254,0.627,0.232
								c0.01-0.021-0.186-0.143-0.567-0.356c-0.452-0.241-1.008-0.539-1.683-0.901c-1.558-0.816-3.659-1.915-6.217-3.254
								c-5.25-2.748-12.459-6.628-20.419-10.927c-7.958-4.298-15.208-8.115-20.516-10.755c-2.654-1.322-4.812-2.369-6.319-3.062
								c-0.697-0.316-1.271-0.577-1.739-0.788C53.617,370.514,53.402,370.434,53.392,370.455z"/>
						</g>
					</g>
				</g>
			</g>
		</g>
	</g>
</g>
<g id="Background_Simple" style="display:none;">
	<path style="display:inline;fill:#F5F5F5;" d="M444.306,163.012c-16.049-39.454-46.587-74.657-86.988-88.146
		s-90.349-0.884-113.431,34.912c-14.032,21.762-17.032,48.604-25.634,73.028c-5.484,15.57-14.146,31.148-28.697,38.942
		c-12.749,6.829-27.925,6.637-42.382,7.02c-34.921,0.923-72.677,7.661-96.312,33.385c-25.305,27.541-27.109,71.27-11.378,105.202
		c15.73,33.933,47.554,48.275,80.238,66.459l183.773,1.708C360.028,422.248,410,383.287,436.659,331.695
		C463.318,280.104,466.188,216.804,444.306,163.012z"/>
	<path style="display:inline;fill:#F5F5F5;" d="M174.555,96.306c-15.123-16.577-41.509-21.804-61.605-11.822
		c-11.186-2.539-29.885,19.274-35.313,29.379c-5.428,10.105-5.128,22.542-1.533,33.435c7.032,21.308,26.931,37.916,49.217,40.534
		c22.285,2.618,45.722-9.169,56.485-28.858S189.678,112.883,174.555,96.306z"/>
</g>
<g id="Floor">
	<g>
		<path style="fill:#263238;" d="M464.674,435.489c0,0.144-97.911,0.26-218.663,0.26c-120.794,0-218.684-0.116-218.684-0.26
			c0-0.144,97.891-0.26,218.684-0.26C366.762,435.228,464.674,435.345,464.674,435.489z"/>
	</g>
</g>
<g id="Character">
	<g>
		<g>
			<g>
				<g>
					<path style="fill:#E8505B;" d="M110.098,371.146L89.93,402.491c0,0-38.634-9.972-42.925-4.542l59.371,41.287l33.428-47.55
						L110.098,371.146z"/>
					<path style="opacity:0.3;" d="M110.098,371.146L89.93,402.491c0,0-38.634-9.972-42.925-4.542l59.371,41.287l33.428-47.55
						L110.098,371.146z"/>
					<g>
						<path style="fill:#E0E0E0;" d="M110.078,412.685c0.931,1.113,0.826,2.957-0.248,3.933c-1.074,0.975-2.95,0.885-3.9-0.211
							c-0.95-1.096-0.892-3.314,0.284-4.163c1.176-0.849,3.374-0.623,4.033,0.67"/>
					</g>
					<path style="fill:#E0E0E0;" d="M106.376,439.235l3.323-4.726l-58.255-37.942c0,0-3.443-0.688-4.439,1.382L106.376,439.235z"/>
					<g>
						<path style="fill:#263238;" d="M89.178,401.52c-0.192,0.297,1.166,1.436,1.944,3.361c0.829,1.904,0.691,3.671,1.037,3.742
							c0.306,0.129,1.079-1.904,0.096-4.217C91.294,402.083,89.3,401.21,89.178,401.52z"/>
					</g>
					<g>
						<path style="fill:#263238;" d="M81.16,399.765c-0.262,0.235,0.651,1.601,0.783,3.512c0.188,1.907-0.485,3.405-0.188,3.594
							c0.241,0.235,1.622-1.324,1.413-3.696C82.979,400.8,81.358,399.493,81.16,399.765z"/>
					</g>
					<g>
						<path style="fill:#263238;" d="M72.44,404.758c0.221,0.245,1.632-0.923,1.991-3.028c0.375-2.103-0.557-3.68-0.848-3.524
							c-0.329,0.125-0.042,1.589-0.363,3.313C72.939,403.25,72.172,404.53,72.44,404.758z"/>
					</g>
					<g>
						<path style="fill:#263238;" d="M94.567,394.886c-0.062,0.349,1.546,0.874,3.107,2.125c1.587,1.219,2.479,2.656,2.803,2.512
							c0.313-0.093-0.185-2.032-2.045-3.479C96.585,394.583,94.583,394.56,94.567,394.886z"/>
					</g>
				</g>
				<g>
					<path style="fill:#263238;" d="M98.752,388.638c-0.087,0.118,0.935,1.093,2.984,2.053c1.021,0.476,2.302,0.924,3.775,1.207
						c0.737,0.141,1.52,0.24,2.337,0.281c0.396,0.014,0.844,0.063,1.384-0.075c0.531-0.079,1.249-0.721,1.205-1.45
						c0.013-0.668-0.387-1.238-0.81-1.546c-0.427-0.319-0.844-0.477-1.222-0.621c-0.773-0.3-1.545-0.511-2.29-0.651
						c-1.493-0.273-2.869-0.261-3.993-0.107c-2.264,0.318-3.488,1.074-3.428,1.199c0.065,0.187,1.366-0.255,3.5-0.333
						c1.063-0.038,2.333,0.041,3.691,0.35c0.678,0.158,1.376,0.374,2.073,0.661c0.744,0.272,1.282,0.64,1.249,1.032
						c-0.016,0.148-0.038,0.195-0.297,0.288c-0.254,0.075-0.624,0.064-1.015,0.051c-0.763-0.023-1.499-0.092-2.195-0.194
						c-1.393-0.206-2.627-0.544-3.641-0.897C100.031,389.176,98.856,388.477,98.752,388.638z"/>
				</g>
				<g>
					<path style="fill:#263238;" d="M98.841,389.316c0.072,0.116,1.369-0.523,2.781-2.327c0.697-0.897,1.385-2.092,1.858-3.537
						c0.232-0.723,0.408-1.506,0.498-2.332c0.06-0.829,0.182-1.909-0.853-2.82c-0.572-0.43-1.379-0.311-1.818-0.034
						c-0.476,0.265-0.754,0.582-1.063,0.878c-0.591,0.617-1.051,1.306-1.395,2.001c-0.692,1.394-0.906,2.805-0.866,3.955
						c0.091,2.345,1.059,3.533,1.152,3.452c0.198-0.078-0.424-1.341-0.283-3.437c0.069-1.033,0.349-2.265,1.002-3.448
						c0.324-0.59,0.738-1.167,1.25-1.68c0.531-0.567,1.122-0.911,1.313-0.682c0.298,0.201,0.47,1.025,0.363,1.697
						c-0.065,0.745-0.201,1.458-0.384,2.124c-0.374,1.332-0.926,2.472-1.487,3.368C99.778,388.292,98.714,389.162,98.841,389.316z"
						/>
				</g>
			</g>
		</g>
		<g>
			<g>
				<g>
					<path style="fill:#E8505B;" d="M116.333,400.078l-20.168,31.344c0,0-38.634-9.972-42.925-4.542l59.371,41.287l33.428-47.55
						L116.333,400.078z"/>
					<g>
						<path style="fill:#E0E0E0;" d="M116.313,441.617c0.931,1.113,0.826,2.957-0.248,3.933c-1.074,0.975-2.95,0.885-3.9-0.211
							c-0.95-1.096-0.892-3.314,0.284-4.163c1.176-0.849,3.374-0.623,4.033,0.67"/>
					</g>
					<path style="fill:#E0E0E0;" d="M112.612,468.167l3.323-4.726l-58.255-37.942c0,0-3.443-0.688-4.439,1.382L112.612,468.167z"/>
					<g>
						<path style="fill:#263238;" d="M95.413,430.452c-0.192,0.297,1.166,1.436,1.944,3.361c0.829,1.904,0.69,3.671,1.037,3.741
							c0.306,0.13,1.08-1.904,0.096-4.217C97.529,431.015,95.535,430.142,95.413,430.452z"/>
					</g>
					<g>
						<path style="fill:#263238;" d="M87.395,428.697c-0.262,0.235,0.651,1.601,0.783,3.512c0.188,1.907-0.485,3.405-0.188,3.593
							c0.241,0.235,1.622-1.323,1.413-3.696C89.214,429.732,87.594,428.425,87.395,428.697z"/>
					</g>
					<g>
						<path style="fill:#263238;" d="M78.675,433.69c0.22,0.245,1.631-0.923,1.991-3.028c0.375-2.103-0.557-3.68-0.847-3.524
							c-0.33,0.125-0.042,1.589-0.363,3.313C79.174,432.181,78.407,433.462,78.675,433.69z"/>
					</g>
					<g>
						<path style="fill:#263238;" d="M100.802,423.818c-0.062,0.349,1.546,0.874,3.107,2.125c1.587,1.219,2.479,2.656,2.803,2.512
							c0.313-0.093-0.185-2.032-2.045-3.479C102.82,423.515,100.818,423.491,100.802,423.818z"/>
					</g>
				</g>
				<g>
					<path style="fill:#263238;" d="M104.987,417.57c-0.087,0.118,0.935,1.093,2.984,2.053c1.021,0.476,2.301,0.924,3.775,1.207
						c0.737,0.141,1.52,0.24,2.337,0.281c0.396,0.014,0.844,0.063,1.384-0.075c0.531-0.079,1.249-0.721,1.205-1.45
						c0.013-0.668-0.387-1.238-0.81-1.546c-0.428-0.319-0.844-0.477-1.222-0.621c-0.773-0.3-1.545-0.511-2.29-0.651
						c-1.493-0.273-2.869-0.261-3.993-0.107c-2.264,0.318-3.488,1.074-3.427,1.199c0.065,0.187,1.366-0.255,3.5-0.333
						c1.063-0.038,2.333,0.041,3.691,0.35c0.678,0.158,1.376,0.374,2.073,0.66c0.744,0.272,1.282,0.64,1.249,1.032
						c-0.016,0.148-0.038,0.195-0.297,0.288c-0.254,0.075-0.624,0.064-1.015,0.051c-0.763-0.022-1.499-0.092-2.195-0.194
						c-1.393-0.206-2.627-0.544-3.641-0.897C106.266,418.108,105.092,417.409,104.987,417.57z"/>
				</g>
				<g>
					<path style="fill:#263238;" d="M105.076,418.248c0.072,0.116,1.369-0.523,2.781-2.327c0.697-0.897,1.385-2.092,1.858-3.537
						c0.232-0.723,0.408-1.506,0.498-2.332c0.06-0.829,0.182-1.909-0.853-2.82c-0.572-0.43-1.379-0.311-1.819-0.034
						c-0.475,0.265-0.754,0.582-1.063,0.878c-0.591,0.617-1.051,1.306-1.395,2.001c-0.692,1.394-0.906,2.805-0.866,3.955
						c0.091,2.345,1.059,3.533,1.152,3.452c0.198-0.078-0.424-1.341-0.283-3.437c0.069-1.033,0.349-2.265,1.002-3.448
						c0.324-0.59,0.738-1.167,1.25-1.68c0.531-0.567,1.122-0.911,1.313-0.682c0.299,0.201,0.47,1.025,0.363,1.697
						c-0.065,0.745-0.201,1.458-0.384,2.124c-0.374,1.332-0.926,2.472-1.487,3.368C106.013,417.224,104.949,418.094,105.076,418.248
						z"/>
				</g>
			</g>
		</g>
		<g>
			<path style="fill:#263238;" d="M107.824,406.433c0,0,17.351-32.581,14.997-29.33c-6.409,8.85,31.255-44.831,48.352-72.324
				c5.501-8.847,14.747-14.691,25.098-15.866v0c10.469-1.189,20.9,2.532,28.254,10.078l97.172,99.708l45.197,26.317
				c0,0-11.12,23.726-46.96,28.703c-35.84,4.978-57.903-24.052-75.983-42.535c-21.313-21.788-42.649-51.059-42.649-51.059
				l-56.631,74.749C144.67,434.874,109.627,408.564,107.824,406.433z"/>
			<path style="fill:#263238;" d="M177.499,294.816L177.499,294.816c-13.244,3.184-24.906,11.013-32.87,22.063l-49.934,68.615
				L118.775,402L177.499,294.816z"/>
			<g>
				<path style="fill:#455A64;" d="M169.164,302.604c0.006,0.006-0.058,0.092-0.189,0.251c-0.151,0.179-0.346,0.41-0.59,0.699
					c-0.27,0.312-0.593,0.686-0.97,1.122c-0.378,0.448-0.759,1.011-1.219,1.618c-1.861,2.416-4.263,6.129-7.191,10.733
					c-5.77,9.268-13.33,22.326-21.507,36.844c-8.15,14.525-15.526,27.671-20.885,37.223c-2.681,4.727-4.857,8.563-6.382,11.251
					c-0.751,1.298-1.341,2.317-1.762,3.044c-0.194,0.325-0.349,0.584-0.47,0.785c-0.108,0.175-0.168,0.263-0.175,0.259
					c-0.008-0.004,0.036-0.101,0.129-0.285c0.109-0.208,0.249-0.475,0.424-0.811c0.4-0.738,0.962-1.773,1.676-3.092
					c1.49-2.707,3.616-6.57,6.237-11.332c5.282-9.56,12.563-22.778,20.754-37.299c8.179-14.521,15.793-27.556,21.649-36.785
					c2.972-4.585,5.424-8.272,7.342-10.659c0.475-0.6,0.868-1.154,1.261-1.593c0.394-0.426,0.731-0.791,1.013-1.095
					c0.26-0.275,0.468-0.495,0.629-0.665C169.081,302.67,169.158,302.598,169.164,302.604z"/>
			</g>
			<g>
				<path style="fill:#455A64;" d="M199.896,341.889c0.079,0.006,0.05,1.059,0.065,2.755c0.014,1.696,0.101,4.038,0.389,6.606
					c0.293,2.569,0.731,4.871,1.096,6.527c0.364,1.657,0.627,2.677,0.552,2.7c-0.062,0.02-0.45-0.965-0.909-2.612
					c-0.46-1.645-0.961-3.962-1.256-6.557c-0.292-2.595-0.321-4.965-0.24-6.671C199.673,342.931,199.832,341.884,199.896,341.889z"
					/>
			</g>
			<g>
				<path style="fill:#455A64;" d="M206.527,339.788c0.073,0.028-0.292,1.13-0.837,2.922c-0.546,1.791-1.246,4.28-1.856,7.067
					c-0.607,2.789-1.009,5.343-1.26,7.199c-0.252,1.855-0.38,3.01-0.458,3.004c-0.066-0.004-0.068-1.169,0.092-3.045
					c0.158-1.875,0.505-4.459,1.117-7.269c0.615-2.808,1.377-5.301,2.015-7.071C205.978,340.822,206.466,339.764,206.527,339.788z"
					/>
			</g>
		</g>
		<g>
			<g>
				<g>
					<g>
						<g>
							<g>
								<g>
									<g>
										<g>
											<g>
												<g>
													<g>
														<g>
															<g>
																<g>
																	<g>
																		<g>
																			<path style="fill:#FFBE9D;" d="M272.145,170.489l26.013,60.755c4.424,10.332-0.699,22.263-11.236,26.171l0,0
																				c-9.834,3.647-20.803-1.077-24.921-10.723c-1.953-4.575-3.592-8.387-3.824-8.844c0,0-16.089,5.167-23.76-9.662
																				c-3.707-7.166-10.14-22.549-15.799-36.533c-6.078-15.018,0.418-32.186,14.898-39.451l1.44-0.723
																				C250.935,144.598,265.708,154.325,272.145,170.489z"/>
																		</g>
																	</g>
																</g>
															</g>
														</g>
													</g>
												</g>
											</g>
										</g>
										<g>
											<g>
												<g>
													<g>
														<g>
															<g>
																<g>
																	<g>
																		<g>
																			<path style="fill:#EB996E;" d="M258.044,237.645c0,0,9.815-3.965,16.68-15.289c0,0,0.79,13.046-14.775,19.173
																				L258.044,237.645z"/>
																		</g>
																	</g>
																</g>
															</g>
														</g>
													</g>
												</g>
											</g>
										</g>
									</g>
								</g>
							</g>
							<g>
								<g>
									<g>
										<g>
											<g>
												<g>
													<g>
														<g>
															<g>
																<g>
																	<g>
																		<g>
																			<g>
																				<g>
																					<g>
																						<path style="fill:#263238;" d="M227.816,200.835c0.525,1.145,1.927,1.645,3.133,1.119
																							c1.204-0.526,1.757-1.878,1.233-3.024c-0.525-1.145-1.928-1.647-3.132-1.122
																							C227.844,198.335,227.292,199.689,227.816,200.835z"/>
																					</g>
																				</g>
																			</g>
																		</g>
																	</g>
																</g>
															</g>
														</g>
													</g>
													<g>
														<g>
															<g>
																<g>
																	<g>
																		<g>
																			<g>
																				<g>
																					<g>
																						<g>
																							<path style="fill:#263238;" d="M224.85,197.979c0.404,0.145,1.418-1.86,3.715-3.004
																								c2.277-1.176,4.552-0.841,4.659-1.246c0.06-0.186-0.461-0.552-1.461-0.718
																								c-0.988-0.169-2.478-0.069-3.903,0.654c-1.425,0.725-2.363,1.853-2.783,2.738
																								C224.644,197.297,224.657,197.919,224.85,197.979z"/>
																						</g>
																					</g>
																				</g>
																			</g>
																		</g>
																	</g>
																</g>
															</g>
														</g>
													</g>
												</g>
												<g>
													<g>
														<g>
															<g>
																<g>
																	<g>
																		<g>
																			<g>
																				<g>
																					<g>
																						<path style="fill:#263238;" d="M250.268,189.942c0.525,1.145,1.927,1.645,3.134,1.119
																							c1.204-0.525,1.757-1.878,1.233-3.023c-0.525-1.145-1.928-1.646-3.132-1.121
																							C250.296,187.442,249.743,188.797,250.268,189.942z"/>
																					</g>
																				</g>
																			</g>
																		</g>
																	</g>
																</g>
															</g>
														</g>
													</g>
													<g>
														<g>
															<g>
																<g>
																	<g>
																		<g>
																			<g>
																				<g>
																					<g>
																						<g>
																							<path style="fill:#263238;" d="M248.063,186.687c0.382,0.197,1.651-1.66,4.075-2.495
																								c2.41-0.87,4.623-0.241,4.782-0.63c0.083-0.176-0.383-0.608-1.356-0.902
																								c-0.957-0.297-2.447-0.391-3.954,0.14c-1.507,0.534-2.583,1.53-3.116,2.353
																								C247.95,185.984,247.881,186.603,248.063,186.687z"/>
																						</g>
																					</g>
																				</g>
																			</g>
																		</g>
																	</g>
																</g>
															</g>
														</g>
													</g>
												</g>
												<g>
													<g>
														<g>
															<g>
																<g>
																	<g>
																		<g>
																			<g>
																				<g>
																					<g>
																						<path style="fill:#263238;" d="M248.462,207.669c-0.055-0.136-1.604,0.333-4.061,1.197
																							c-0.616,0.234-1.229,0.395-1.528,0.045c-0.35-0.354-0.422-1.108-0.48-1.931
																							c-0.16-1.693-0.329-3.468-0.505-5.328c-0.78-7.555-1.658-13.648-1.962-13.614
																							c-0.304,0.034,0.081,6.185,0.862,13.74c0.206,1.856,0.402,3.626,0.592,5.318
																							c0.112,0.777,0.11,1.723,0.849,2.451c0.377,0.359,0.966,0.461,1.392,0.373
																							c0.433-0.074,0.766-0.233,1.064-0.361C247.072,208.516,248.519,207.803,248.462,207.669z"/>
																					</g>
																				</g>
																			</g>
																		</g>
																	</g>
																</g>
															</g>
														</g>
													</g>
												</g>
											</g>
										</g>
									</g>
									<g>
										<g>
											<g>
												<g>
													<g>
														<g>
															<g>
																<g>
																	<g>
																		<path style="fill:#263238;" d="M256.884,177.732c-0.363-0.647-2.837,0.094-5.866,0.224
																			c-3.027,0.191-5.565-0.285-5.857,0.397c-0.127,0.324,0.397,0.903,1.475,1.411c1.069,0.507,2.705,0.888,4.52,0.794
																			c1.815-0.098,3.401-0.649,4.411-1.267C256.585,178.672,257.046,178.041,256.884,177.732z"/>
																	</g>
																</g>
															</g>
														</g>
													</g>
												</g>
											</g>
										</g>
									</g>
									<g>
										<g>
											<g>
												<g>
													<g>
														<g>
															<g>
																<g>
																	<g>
																		<path style="fill:#263238;" d="M228.244,189.621c-0.698-0.237-1.837,1.244-3.593,2.441
																			c-1.714,1.259-3.488,1.841-3.497,2.578c0.012,0.347,0.571,0.677,1.531,0.702c0.949,0.031,2.278-0.311,3.471-1.154
																			c1.192-0.845,1.955-1.984,2.241-2.89C228.693,190.384,228.567,189.748,228.244,189.621z"/>
																	</g>
																</g>
															</g>
														</g>
													</g>
												</g>
											</g>
										</g>
									</g>
								</g>
							</g>
							<g>
								<g>
									<g>
										<g>
											<g>
												<g>
													<g>
														<g>
															<g>
																<g>
																	<path style="fill:#FFBE9D;" d="M276.47,182.15c0.199-0.238,8.732-8.177,13.524,2.189
																		c4.792,10.365-6.602,13.039-6.758,12.75C283.081,196.799,276.47,182.15,276.47,182.15z"/>
																</g>
															</g>
														</g>
													</g>
												</g>
											</g>
										</g>
									</g>
								</g>
								<g>
									<g>
										<g>
											<g>
												<g>
													<g>
														<g>
															<g>
																<g>
																	<g>
																		<path style="fill:#EB996E;" d="M284.587,191.697c0.03-0.054,0.239,0.043,0.609,0.042
																			c0.36-0.001,0.916-0.144,1.362-0.596c0.909-0.908,1.027-3.073,0.214-4.965c-0.41-0.956-1.023-1.762-1.701-2.352
																			c-0.667-0.612-1.402-0.915-1.999-0.758c-0.607,0.127-0.845,0.637-0.837,0.988
																			c-0.005,0.354,0.157,0.531,0.11,0.574c-0.017,0.039-0.303-0.071-0.417-0.538
																			c-0.052-0.226-0.044-0.526,0.108-0.838c0.155-0.317,0.473-0.589,0.877-0.726c0.825-0.314,1.884,0.088,2.629,0.735
																			c0.79,0.63,1.502,1.526,1.962,2.599c0.899,2.119,0.734,4.568-0.564,5.694c-0.641,0.527-1.351,0.589-1.778,0.489
																			C284.721,191.939,284.559,191.733,284.587,191.697z"/>
																	</g>
																</g>
															</g>
														</g>
													</g>
												</g>
											</g>
										</g>
									</g>
								</g>
							</g>
						</g>
					</g>
					<g>
						<g>
							<g>
								<g>
									<g>
										<path style="fill:#263238;" d="M281.972,178.956c-1.745,0.404-3.716,3.191-3.648,4.981c0.067,1.79,0.75,3.514,0.82,5.303
											c0.07,1.79-0.764,3.858-2.507,4.271c-1.202,0.285-2.475-0.337-3.294-1.261c-0.819-0.925-1.27-2.111-1.681-3.275
											c-1.789-5.066-3.158-10.293-5.374-15.188c-2.216-4.894-5.4-9.537-9.971-12.361c-4.571-2.824-10.707-3.508-15.3-0.721
											c-3.042,1.846-5.121,4.958-8.049,6.98c-3.472,2.397-8.082,3.06-12.089,1.739c-0.136-0.045-0.384-0.095-0.675-0.145
											c-1.355-0.232-2.455-1.32-2.579-2.689c-0.042-0.466-0.023-0.92,0.112-1.279c3.35-8.914,13.801-16.177,23.097-18.241
											c9.297-2.064,19.958-0.118,27.39,5.836C275.657,158.859,280.001,170.147,281.972,178.956"/>
									</g>
								</g>
							</g>
						</g>
					</g>
				</g>
			</g>
			<g>
				<path style="fill:#263238;" d="M256.916,210.506c-0.03,0.158-0.556,0.154-1.332,0.281c-0.771,0.143-1.809,0.452-2.768,1.151
					c-0.97,0.676-1.673,1.526-2.109,2.186c-0.443,0.659-0.655,1.133-0.807,1.099c-0.128-0.023-0.169-0.594,0.152-1.435
					c0.311-0.833,1.027-1.908,2.166-2.703c1.125-0.821,2.436-1.079,3.325-1.033C256.448,210.11,256.944,210.385,256.916,210.506z"/>
			</g>
			<g>
				<path style="fill:#EB996E;" d="M258.74,188.399c0.138,0.005-0.051,1.314-1.199,2.35c-1.137,1.049-2.457,1.118-2.449,0.98
					c-0.033-0.15,1.095-0.429,2.098-1.365C258.212,189.45,258.594,188.352,258.74,188.399z"/>
			</g>
		</g>
		<g>
			<g>
				<path style="fill:#FFBE9D;" d="M175.585,206.865l15.789-28.869l13.008-10.476l16.78,2.309c0,0,4.819,5.495,2.959,8.212
					c-1.861,2.717-3.544,9.548-5.431,7.058c-1.888-2.49-2.279-7.747-2.279-7.747l-4.427-0.237l0.04,7.811l8.919,2.714
					c0,0,8.815-7.336,9.708-5.726c0.894,1.61,0.113,4.583-4.935,8.853c-5.048,4.269-11.158,10.862-11.158,10.862l-7.933,1.882
					l-7.128,11.382L175.585,206.865z"/>
				<g>
					<path style="fill:#E8505B;" d="M264.736,243.953l-82.853,25.185l19.399-55.312l-26.324-8.224l-29.91,61.439
						c-9.031,21.246-6.575,30.639,1.821,39.861l0,0c6.749,7.413,24.476,3.792,34.33,1.948l72.493-11.305L264.736,243.953z"/>
					<path style="opacity:0.4;" d="M264.736,243.953l-82.853,25.185l19.399-55.312l-26.324-8.224l-29.91,61.439
						c-9.031,21.246-6.575,30.639,1.821,39.861l0,0c6.749,7.413,24.476,3.792,34.33,1.948l72.239-11.264L264.736,243.953z"/>
				</g>
			</g>
			<g>
				<path style="fill:#FAFAFA;" d="M166.681,238.616c-0.015,0.143-1.684,0.081-3.726-0.139c-2.043-0.22-3.686-0.514-3.67-0.657
					c0.015-0.143,1.683-0.081,3.726,0.139C165.053,238.179,166.696,238.473,166.681,238.616z"/>
			</g>
			<g>
				<path style="fill:#FAFAFA;" d="M167.993,235.698c-0.04,0.138-1.581-0.184-3.443-0.72c-1.862-0.536-3.339-1.082-3.299-1.22
					c0.04-0.138,1.581,0.184,3.443,0.72C166.556,235.014,168.033,235.56,167.993,235.698z"/>
			</g>
		</g>
		<g>
			<path style="fill:#E8505B;" d="M249.208,290.553c0,0,33.426,53.894,33.197,61.942c-0.229,8.048,15.453,25.575,22.372,32.494
				c6.919,6.919,46.895,40.027,62.116,40.027c0,0,19.623-28.271,18.24-44.876c-1.384-16.605-32.216-104.151-32.216-104.151
				s-23.923-50.204-46-55.106c-5.598-1.243-14.561-3.191-14.561-3.191c0,0.435,1.298,11.385-9.82,18.158
				c-15.563,9.481-34.071,16.346-34.071,16.346L249.208,290.553z"/>
			<path style="fill:#E8505B;" d="M288.068,236.839l-50.007,14.436l-43.608,9.093l19.399-55.312l-27.783-8.68l-28.451,61.895
				c-9.031,21.245-6.575,30.639,1.821,39.861l0,0c6.749,7.413,24.476,3.792,34.33,1.948l85.142-7.955L288.068,236.839z"/>
			<path style="fill:#FFBE9D;" d="M188.217,196.832l15.099-27.607l13.008-10.476l16.78,2.309c0,0,4.819,5.495,2.958,8.212
				c-1.861,2.717-3.544,9.548-5.431,7.058c-1.888-2.49-2.279-7.747-2.279-7.747l-4.428-0.238l0.04,7.811l8.919,2.714
				c0,0,8.815-7.336,9.708-5.726c0.894,1.61,0.113,4.583-4.935,8.853s-11.158,10.862-11.158,10.862l-7.933,1.882l-6.175,9.86
				L188.217,196.832z"/>
			<g>
				<path style="fill:#EB996E;" d="M212.389,204.6c-0.005-0.003,0.025-0.062,0.088-0.174c0.075-0.129,0.171-0.291,0.291-0.498
					c0.277-0.457,0.666-1.1,1.169-1.929c1.052-1.707,2.575-4.177,4.517-7.327l0.028-0.045l0.053-0.013
					c2.321-0.561,4.976-1.203,7.925-1.916l-0.083,0.048c3.325-3.555,7.33-7.682,12.187-11.838c1.151-1.084,2.302-2.262,3.161-3.669
					c0.424-0.699,0.784-1.461,0.915-2.265c0.059-0.401,0.052-0.808-0.044-1.193c-0.046-0.187-0.131-0.387-0.215-0.534
					c-0.044-0.076-0.178-0.122-0.374-0.093c-0.769,0.114-1.569,0.597-2.321,1.029c-0.758,0.459-1.505,0.961-2.245,1.487
					c-1.479,1.054-2.947,2.193-4.399,3.388l-0.103,0.084l-0.126-0.038c-2.825-0.857-5.84-1.771-8.921-2.706l-0.179-0.054
					l-0.001-0.187c-0.014-2.473-0.029-5.122-0.045-7.811l-0.002-0.274l0.274,0.015c1.396,0.074,2.906,0.155,4.427,0.236l0.222,0.012
					l0.023,0.228c0.209,2.05,0.581,4.295,1.482,6.315c0.177,0.401,0.39,0.783,0.637,1.132c0.23,0.36,0.531,0.642,0.808,0.586
					c0.295-0.045,0.607-0.378,0.848-0.712c0.249-0.342,0.464-0.722,0.667-1.108c0.808-1.554,1.428-3.208,2.265-4.765
					c0.107-0.194,0.217-0.387,0.334-0.577c0.129-0.192,0.244-0.377,0.316-0.543c0.042-0.086,0.091-0.17,0.129-0.258l0.063-0.286
					c0.06-0.186,0.061-0.387,0.06-0.587c-0.003-0.803-0.268-1.611-0.598-2.37c-0.68-1.521-1.663-2.908-2.706-4.163l0.155,0.084
					c-5.88-0.816-11.496-1.595-16.777-2.327l0.178-0.049c-4.715,3.782-9.079,7.283-13.029,10.45l0.05-0.06
					c-4.659,8.442-8.457,15.323-11.103,20.118c-1.319,2.363-2.35,4.21-3.065,5.491c-0.347,0.609-0.617,1.083-0.812,1.425
					c-0.186,0.32-0.295,0.477-0.295,0.477s0.073-0.176,0.242-0.505c0.183-0.349,0.436-0.832,0.762-1.453
					c0.693-1.293,1.692-3.158,2.97-5.543c2.61-4.815,6.355-11.725,10.949-20.202l0.019-0.035l0.032-0.025
					c3.936-3.183,8.287-6.701,12.987-10.501l0.078-0.063l0.101,0.014c5.283,0.721,10.901,1.488,16.782,2.29l0.097,0.013l0.059,0.071
					c1.083,1.3,2.076,2.693,2.794,4.288c0.346,0.797,0.638,1.654,0.645,2.579c0.001,0.231-0.002,0.463-0.071,0.694l-0.08,0.346
					c-0.045,0.11-0.104,0.216-0.157,0.324c-0.107,0.229-0.223,0.411-0.336,0.58c-0.111,0.18-0.216,0.365-0.319,0.552
					c-0.812,1.514-1.432,3.165-2.259,4.76c-0.21,0.398-0.433,0.795-0.707,1.173c-0.281,0.358-0.584,0.791-1.189,0.919
					c-0.305,0.053-0.614-0.074-0.821-0.239c-0.209-0.167-0.366-0.369-0.491-0.561c-0.271-0.383-0.497-0.792-0.684-1.214
					c-0.944-2.128-1.309-4.38-1.526-6.494l0.245,0.24c-1.521-0.082-3.031-0.163-4.427-0.239l0.272-0.259
					c0.012,2.689,0.025,5.338,0.036,7.811l-0.18-0.241c3.079,0.94,6.092,1.86,8.916,2.722l-0.229,0.046
					c1.468-1.203,2.941-2.34,4.437-3.401c0.748-0.529,1.504-1.035,2.28-1.501c0.793-0.441,1.543-0.933,2.521-1.086
					c0.224-0.035,0.602-0.002,0.802,0.303c0.132,0.229,0.212,0.436,0.273,0.67c0.114,0.459,0.117,0.93,0.049,1.378
					c-0.15,0.897-0.539,1.699-0.984,2.428c-0.903,1.464-2.079,2.653-3.252,3.75c-4.881,4.141-8.883,8.221-12.233,11.749
					l-0.036,0.037l-0.048,0.011c-2.955,0.688-5.616,1.307-7.941,1.848l0.08-0.057c-1.987,3.122-3.545,5.571-4.621,7.262
					c-0.527,0.814-0.935,1.445-1.225,1.893c-0.133,0.199-0.238,0.355-0.321,0.479C212.434,204.55,212.395,204.603,212.389,204.6z"/>
			</g>
			<g>
				<path style="fill:#263238;" d="M283.479,304.687c-0.023,0.028-0.452-0.266-1.206-0.82c-0.373-0.282-0.834-0.62-1.392-0.98
					c-0.554-0.365-1.165-0.808-1.891-1.222c-1.409-0.894-3.177-1.804-5.179-2.72c-2.025-0.867-4.311-1.679-6.772-2.315
					c-4.933-1.271-9.569-1.564-12.903-1.622c-1.67-0.013-3.024-0.001-3.959,0.039c-0.936,0.027-1.455,0.026-1.458-0.01
					s0.512-0.102,1.446-0.192c0.934-0.102,2.292-0.171,3.972-0.205c3.352-0.036,8.04,0.199,13.032,1.486
					c2.49,0.643,4.8,1.48,6.837,2.381c2.015,0.95,3.785,1.904,5.181,2.846c0.719,0.438,1.322,0.906,1.863,1.297
					c0.546,0.385,0.992,0.749,1.347,1.057C283.117,304.312,283.502,304.659,283.479,304.687z"/>
			</g>
			<g>
				<path style="fill:#263238;" d="M278.014,239.447c0.01,0.035-0.524,0.229-1.5,0.55c-1.066,0.338-2.462,0.78-4.144,1.314
					c-3.506,1.088-8.358,2.555-13.727,4.146c-5.371,1.591-10.242,3.003-13.776,4.001c-1.703,0.47-3.116,0.859-4.195,1.156
					c-0.995,0.262-1.55,0.391-1.562,0.357s0.521-0.227,1.495-0.548c1.066-0.338,2.46-0.78,4.142-1.313
					c3.505-1.088,8.361-2.557,13.736-4.149c5.373-1.592,10.246-3.005,13.781-4.003c1.703-0.469,3.115-0.859,4.193-1.156
					C277.45,239.541,278.004,239.413,278.014,239.447z"/>
			</g>
			<g>
				<path style="fill:#263238;" d="M356.844,382.973c0.013,0.012-0.172,0.22-0.539,0.607c-0.187,0.189-0.403,0.441-0.692,0.702
					c-0.303,0.259-0.645,0.55-1.025,0.875c-1.574,1.269-4.174,2.781-7.704,3.684c-3.518,0.89-7.952,1.106-12.655,0.076
					c-4.71-1.025-9.537-3.368-14.11-6.454c-4.576-3.108-8.536-6.583-12.118-9.726c-3.577-3.154-6.824-5.958-9.693-8.133
					c-2.867-2.176-5.329-3.741-7.083-4.728c-0.878-0.491-1.565-0.866-2.039-1.104c-0.47-0.247-0.713-0.384-0.705-0.401
					c0.007-0.016,0.266,0.09,0.751,0.306c0.49,0.208,1.194,0.555,2.091,1.021c1.791,0.937,4.297,2.463,7.206,4.611
					c2.91,2.146,6.194,4.932,9.788,8.066c3.599,3.124,7.554,6.573,12.094,9.656c4.535,3.061,9.298,5.384,13.923,6.418
					c4.621,1.039,8.988,0.866,12.463,0.035c3.486-0.844,6.074-2.28,7.669-3.487c0.388-0.308,0.736-0.584,1.045-0.829
					c0.297-0.247,0.523-0.485,0.721-0.661C356.619,383.145,356.83,382.961,356.844,382.973z"/>
			</g>
			<g>
				<path style="fill:#263238;" d="M337.894,326.184c0.001,0.036-0.351,0.067-0.991,0.091c-0.64,0.035-1.569,0.005-2.71-0.105
					c-1.143-0.102-2.493-0.342-3.965-0.718c-1.465-0.4-3.049-0.95-4.639-1.692c-1.584-0.759-3.014-1.634-4.252-2.513
					c-1.225-0.9-2.266-1.791-3.071-2.61c-0.809-0.812-1.422-1.511-1.801-2.028c-0.387-0.51-0.586-0.802-0.558-0.824
					c0.075-0.061,0.951,1.049,2.613,2.586c0.826,0.774,1.875,1.622,3.094,2.485c1.233,0.843,2.643,1.689,4.198,2.434
					c1.562,0.729,3.11,1.282,4.544,1.7c1.44,0.394,2.761,0.668,3.883,0.815C336.479,326.114,337.893,326.088,337.894,326.184z"/>
			</g>
			<g style="opacity:0.2;">
				<path d="M299.763,365.238c4.057-1.671,8.803-0.365,12.498,2.001c3.695,2.365,6.659,5.689,9.987,8.548
					c3.328,2.859,7.296,5.352,11.681,5.487c6.342,0.195,12.031-4.537,18.375-4.454c2.365,0.031,5.165,1.288,5.297,3.649
					c0.101,1.817-1.447,3.275-2.965,4.277c-6.884,4.544-11.499,7.583-26.545,1.8C317.731,380.92,308.345,373.726,299.763,365.238z"
					/>
			</g>
			<g>
				<path style="fill:#263238;" d="M283.239,352.379c-0.126,0.069-7.247-12.774-15.902-28.682
					c-8.658-15.913-15.573-28.865-15.446-28.934c0.126-0.069,7.245,12.772,15.904,28.685
					C276.45,339.356,283.365,352.31,283.239,352.379z"/>
			</g>
			<g>
				<path style="fill:#FAFAFA;" d="M235.247,295.759c-0.033,0.013-0.281-0.529-0.702-1.523c-0.425-0.992-0.995-2.445-1.658-4.257
					c-1.329-3.622-2.955-8.709-4.322-14.44c-1.36-5.734-2.198-11.01-2.642-14.842c-0.224-1.916-0.37-3.471-0.436-4.547
					c-0.072-1.076-0.095-1.672-0.059-1.676c0.036-0.003,0.127,0.587,0.26,1.656c0.128,1.069,0.33,2.615,0.6,4.52
					c0.536,3.811,1.428,9.055,2.784,14.769c1.362,5.71,2.926,10.794,4.163,14.438c0.617,1.823,1.133,3.293,1.5,4.306
					C235.096,295.178,235.281,295.746,235.247,295.759z"/>
			</g>
			<g>
				<path style="fill:#FAFAFA;" d="M241.07,295.683c-0.034,0.012-0.273-0.559-0.676-1.602c-0.408-1.042-0.952-2.567-1.581-4.467
					c-1.261-3.797-2.788-9.121-4.031-15.103c-1.236-5.986-1.95-11.479-2.301-15.464c-0.177-1.993-0.284-3.609-0.324-4.727
					c-0.045-1.118-0.052-1.736-0.017-1.739c0.036-0.002,0.112,0.612,0.219,1.724c0.101,1.112,0.264,2.72,0.488,4.704
					c0.444,3.967,1.213,9.431,2.445,15.396c1.239,5.961,2.703,11.281,3.872,15.097c0.583,1.909,1.072,3.449,1.421,4.511
					C240.929,295.077,241.103,295.671,241.07,295.683z"/>
			</g>
			<g>
				<path style="fill:#FAFAFA;" d="M316.048,316.885c0.004,0.017-0.161,0.071-0.48,0.156c-0.378,0.094-0.84,0.209-1.398,0.348
					c-1.216,0.297-2.987,0.674-5.185,1.094c-4.394,0.844-10.517,1.77-17.329,2.307c-6.814,0.529-13.008,0.567-17.48,0.417
					c-2.236-0.073-4.045-0.171-5.291-0.275c-0.573-0.05-1.047-0.092-1.435-0.126c-0.328-0.034-0.499-0.061-0.498-0.079
					c0.001-0.018,0.175-0.026,0.504-0.026c0.389,0.008,0.864,0.017,1.439,0.028c1.249,0.042,3.056,0.083,5.289,0.109
					c4.465,0.055,10.637-0.04,17.431-0.568c6.791-0.535,12.902-1.401,17.305-2.15c2.201-0.373,3.981-0.695,5.208-0.93
					c0.566-0.101,1.034-0.184,1.418-0.252C315.871,316.886,316.044,316.867,316.048,316.885z"/>
			</g>
			<g>
				<path style="fill:#FAFAFA;" d="M358.265,300.102c0.021,0.029-0.438,0.401-1.288,1.048c-0.846,0.653-2.105,1.553-3.688,2.623
					c-3.164,2.143-7.69,4.891-12.932,7.46c-5.248,2.562-10.196,4.448-13.831,5.629c-1.817,0.593-3.299,1.034-4.334,1.301
					c-1.033,0.273-1.608,0.408-1.618,0.373c-0.01-0.035,0.547-0.235,1.56-0.567c1.015-0.326,2.477-0.82,4.273-1.455
					c3.593-1.267,8.496-3.198,13.721-5.749c5.219-2.557,9.753-5.242,12.959-7.3c1.604-1.027,2.891-1.879,3.772-2.48
					C357.743,300.389,358.243,300.073,358.265,300.102z"/>
			</g>
			<g>
				<path style="fill:#FAFAFA;" d="M357.425,291.276c0.005,0.007-0.061,0.064-0.194,0.167c-0.16,0.12-0.358,0.267-0.602,0.449
					c-0.569,0.41-1.353,0.973-2.344,1.687c-0.515,0.366-1.083,0.77-1.702,1.21c-0.632,0.428-1.34,0.859-2.09,1.341
					c-1.512,0.942-3.195,2.083-5.172,3.147c-0.978,0.552-2.002,1.129-3.069,1.73c-1.07,0.596-2.228,1.132-3.402,1.733
					c-2.337,1.232-4.937,2.328-7.652,3.527c-5.489,2.255-11.664,4.408-18.301,6.117c-6.654,1.652-13.112,2.693-19.014,3.317
					c-2.959,0.235-5.768,0.507-8.409,0.533c-1.319,0.03-2.592,0.108-3.817,0.092c-1.224-0.022-2.399-0.043-3.522-0.064
					c-2.245,0.004-4.268-0.201-6.046-0.311c-0.888-0.067-1.717-0.11-2.476-0.186c-0.754-0.093-1.445-0.178-2.072-0.255
					c-1.211-0.157-2.168-0.28-2.864-0.37c-0.301-0.044-0.545-0.08-0.743-0.109c-0.167-0.027-0.252-0.046-0.251-0.055
					c0.001-0.009,0.089-0.008,0.258,0.002c0.199,0.015,0.445,0.035,0.749,0.058c0.698,0.066,1.657,0.157,2.872,0.273
					c0.627,0.063,1.319,0.133,2.073,0.21c0.759,0.061,1.587,0.09,2.474,0.143c1.776,0.082,3.795,0.26,6.034,0.233
					c1.12,0.01,2.292,0.02,3.512,0.03c1.221,0.005,2.49-0.083,3.804-0.122c2.632-0.045,5.43-0.332,8.377-0.579
					c5.878-0.649,12.307-1.699,18.935-3.345c6.611-1.702,12.765-3.833,18.245-6.055c2.71-1.183,5.308-2.26,7.645-3.471
					c1.175-0.59,2.333-1.116,3.405-1.701c1.069-0.589,2.095-1.155,3.076-1.695c1.983-1.04,3.674-2.156,5.198-3.073
					c0.756-0.468,1.47-0.887,2.109-1.302c0.627-0.426,1.203-0.816,1.724-1.17c1.014-0.679,1.815-1.215,2.397-1.605
					c0.256-0.165,0.464-0.299,0.632-0.407C357.343,291.311,357.42,291.269,357.425,291.276z"/>
			</g>
			<g>
				<path style="fill:#FAFAFA;" d="M206.631,225.642c-0.04,0.138-6.765-1.693-15.02-4.09c-8.257-2.398-14.916-4.452-14.876-4.591
					c0.04-0.138,6.764,1.693,15.021,4.09C200.011,223.449,206.671,225.504,206.631,225.642z"/>
			</g>
			<g>
				<path style="fill:#FAFAFA;" d="M205.312,229.404c-0.04,0.138-6.869-1.731-15.251-4.174c-8.385-2.444-15.147-4.537-15.107-4.675
					c0.04-0.138,6.868,1.731,15.253,4.175C198.588,227.173,205.352,229.266,205.312,229.404z"/>
			</g>
			<g style="opacity:0.3;">
				<path d="M291.551,321.34c-0.43-8.819-6.397-16.76-14.07-21.129c-7.672-4.369-16.642-5.56-25.458-5.071l22.546,38.974
					c2.846,0.115,4.954,0.134,7.743-0.442c2.789-0.576,5.524-1.921,7.214-4.214C291.214,327.167,291.689,324.181,291.551,321.34z"/>
			</g>
		</g>
	</g>
</g>
<g id="Plant">
	<g>
		<g>
			<g>
				<g>
					<g>
						<g>
							<g>
								<g>
									<g>
										<path style="fill:#263238;" d="M411.591,400.435c-0.013-0.007,0.071-0.209,0.247-0.595
											c0.197-0.421,0.462-0.984,0.798-1.703c0.678-1.504,1.561-3.783,2.346-6.815c1.552-6.059,2.094-15.32-0.2-26.32
											c-1.066-5.508-2.784-11.415-4.881-17.678c-2.067-6.274-4.466-12.931-6.426-20.127c-1.939-7.178-3.468-14.973-3.173-23.142
											c0.298-8.186,2.72-16.357,5.386-24.489c2.659-8.146,5.41-16.108,6.234-24.117c0.932-7.995-0.779-15.843-4.422-22.274
											c-3.527-6.499-7.966-12.058-11.288-17.816c-3.373-5.739-5.483-11.64-6.784-17.127c-2.521-11.065-1.638-20.389-0.43-26.533
											c1.309-6.177,2.768-9.37,2.768-9.37c0.014,0.005-0.042,0.216-0.164,0.623c-0.138,0.444-0.324,1.038-0.561,1.796
											c-0.488,1.578-1.12,3.936-1.721,7.014c-1.103,6.132-1.884,15.391,0.688,26.334c1.326,5.427,3.446,11.25,6.807,16.909
											c3.314,5.689,7.771,11.224,11.368,17.8c3.719,6.502,5.507,14.606,4.56,22.726c-0.829,8.145-3.601,16.16-6.254,24.296
											c-2.665,8.126-5.06,16.211-5.362,24.259c-0.302,8.044,1.19,15.762,3.097,22.907c1.928,7.161,4.299,13.819,6.34,20.111
											c2.072,6.282,3.768,12.237,4.802,17.784c2.234,11.081,1.597,20.434-0.068,26.515c-0.841,3.044-1.779,5.318-2.511,6.805
											c-0.37,0.705-0.66,1.258-0.877,1.671C411.714,400.254,411.604,400.442,411.591,400.435z"/>
									</g>
								</g>
							</g>
						</g>
					</g>
				</g>
				<g>
					<g>
						<g>
							<g>
								<g>
									<g>
										<path style="fill:#E8505B;" d="M400.725,221.04c0,0-6.744-21.567,5.354-34.195c0.425-0.443,1.172-0.234,1.282,0.371
											C408.007,190.777,408.815,201.625,400.725,221.04z"/>
									</g>
								</g>
							</g>
						</g>
					</g>
					<g>
						<g>
							<g>
								<g>
									<g>
										<g>
											<path style="fill:#263238;" d="M404.766,194.031c0.115,0.023-0.078,1.54-0.454,3.979
												c-0.443,2.741-0.964,5.958-1.538,9.513c-0.565,3.555-1.075,6.772-1.51,9.512c-0.37,2.436-0.591,3.946-0.714,3.936
												c-0.109-0.008-0.098-1.543,0.121-4.009c0.223-2.464,0.658-5.854,1.269-9.576c0.608-3.721,1.258-7.072,1.785-9.486
												C404.251,195.487,404.651,194.009,404.766,194.031z"/>
										</g>
									</g>
								</g>
							</g>
						</g>
					</g>
				</g>
				<g>
					<g>
						<g>
							<g>
								<g>
									<g>
										<path style="fill:#E8505B;" d="M408.648,271.907c0,0,4.125-22.218,20.724-27.722c0.583-0.193,1.146,0.342,0.96,0.927
											C429.237,248.563,424.877,258.529,408.648,271.907z"/>
									</g>
								</g>
							</g>
						</g>
					</g>
					<g>
						<g>
							<g>
								<g>
									<g>
										<g>
											<path style="fill:#263238;" d="M424.85,249.924c0.091,0.074-0.789,1.324-2.262,3.304
												c-1.674,2.215-3.638,4.816-5.809,7.688c-2.161,2.879-4.117,5.483-5.783,7.702c-1.466,1.98-2.368,3.212-2.472,3.146
												c-0.093-0.058,0.635-1.41,1.982-3.487c1.35-2.074,3.319-4.867,5.6-7.871c2.278-3.004,4.419-5.663,6.014-7.55
												C423.714,250.969,424.76,249.85,424.85,249.924z"/>
										</g>
									</g>
								</g>
							</g>
						</g>
					</g>
				</g>
				<g>
					<g>
						<g>
							<g>
								<g>
									<g>
										<path style="fill:#E8505B;" d="M404.162,327.645c0,0-2.506-22.458,11.779-32.546c0.502-0.354,1.196-0.006,1.188,0.608
											C417.084,299.326,415.807,310.13,404.162,327.645z"/>
									</g>
								</g>
							</g>
						</g>
					</g>
					<g>
						<g>
							<g>
								<g>
									<g>
										<g>
											<path style="fill:#263238;" d="M413.281,301.903c0.108,0.044-0.371,1.496-1.205,3.819
												c-0.958,2.606-2.083,5.665-3.325,9.044c-1.232,3.382-2.347,6.442-3.297,9.049c-0.827,2.321-1.333,3.761-1.452,3.728
												c-0.105-0.029,0.198-1.533,0.883-3.912c0.689-2.376,1.763-5.621,3.073-9.158c1.307-3.536,2.584-6.702,3.563-8.971
												C412.498,303.233,413.173,301.859,413.281,301.903z"/>
										</g>
									</g>
								</g>
							</g>
						</g>
					</g>
				</g>
				<g>
					<g>
						<g>
							<g>
								<g>
									<g>
										<path style="fill:#E8505B;" d="M416.666,383.708c0,0-1.7-22.533,12.937-32.103c0.514-0.336,1.195,0.037,1.165,0.651
											C430.594,355.871,428.931,366.621,416.666,383.708z"/>
									</g>
								</g>
							</g>
						</g>
					</g>
					<g>
						<g>
							<g>
								<g>
									<g>
										<g>
											<path style="fill:#263238;" d="M426.701,358.309c0.106,0.048-0.424,1.482-1.341,3.773
												c-1.051,2.57-2.284,5.587-3.647,8.919c-1.352,3.336-2.576,6.354-3.619,8.926c-0.91,2.289-1.467,3.711-1.585,3.673
												c-0.104-0.033,0.253-1.525,1.023-3.878c0.774-2.35,1.962-5.555,3.398-9.042c1.433-3.487,2.822-6.605,3.881-8.838
												C425.871,359.611,426.595,358.261,426.701,358.309z"/>
										</g>
									</g>
								</g>
							</g>
						</g>
					</g>
				</g>
				<g>
					<g>
						<g>
							<g>
								<g>
									<g>
										<path style="fill:#E8505B;" d="M391.033,202.091c0,0-20.03-10.46-20.423-27.944c-0.014-0.614,0.663-0.995,1.168-0.646
											C374.754,175.559,383.004,182.651,391.033,202.091z"/>
									</g>
								</g>
							</g>
						</g>
					</g>
					<g>
						<g>
							<g>
								<g>
									<g>
										<g>
											<path style="fill:#263238;" d="M374.768,180.153c0.097-0.065,1.035,1.143,2.496,3.132
												c1.627,2.25,3.537,4.891,5.647,7.808c2.118,2.911,4.034,5.544,5.667,7.788c1.463,1.982,2.376,3.206,2.282,3.286
												c-0.083,0.071-1.161-1.021-2.752-2.917c-1.587-1.899-3.68-4.601-5.882-7.663c-2.204-3.059-4.117-5.885-5.453-7.964
												C375.435,181.546,374.672,180.218,374.768,180.153z"/>
										</g>
									</g>
								</g>
							</g>
						</g>
					</g>
				</g>
				<g>
					<g>
						<g>
							<g>
								<g>
									<g>
										<path style="fill:#E8505B;" d="M412.541,248.409c0,0-20.629-9.225-22.083-26.652c-0.051-0.612,0.601-1.034,1.126-0.716
											C394.682,222.915,403.346,229.492,412.541,248.409z"/>
									</g>
								</g>
							</g>
						</g>
					</g>
					<g>
						<g>
							<g>
								<g>
									<g>
										<g>
											<path style="fill:#263238;" d="M394.975,227.499c0.093-0.071,1.102,1.078,2.681,2.975c1.76,2.147,3.827,4.667,6.11,7.451
												c2.291,2.777,4.363,5.289,6.129,7.429c1.581,1.89,2.566,3.055,2.477,3.142c-0.078,0.076-1.221-0.948-2.924-2.745
												c-1.699-1.799-3.953-4.369-6.337-7.291c-2.386-2.919-4.467-5.625-5.927-7.618
												C395.725,228.848,394.882,227.57,394.975,227.499z"/>
										</g>
									</g>
								</g>
							</g>
						</g>
					</g>
				</g>
				<g>
					<g>
						<g>
							<g>
								<g>
									<g>
										<path style="fill:#E8505B;" d="M400.672,300.074c0,0-14.164-17.608-7.52-33.785c0.233-0.568,1.006-0.646,1.329-0.124
											C396.383,269.244,401.101,279.046,400.672,300.074z"/>
									</g>
								</g>
							</g>
						</g>
					</g>
					<g>
						<g>
							<g>
								<g>
									<g>
										<g>
											<path style="fill:#263238;" d="M394.556,273.458c0.115-0.021,0.49,1.462,1.032,3.87c0.59,2.713,1.281,5.898,2.046,9.416
												c0.775,3.515,1.476,6.696,2.073,9.406c0.547,2.402,0.893,3.889,0.774,3.925c-0.104,0.032-0.655-1.4-1.353-3.775
												c-0.694-2.375-1.529-5.69-2.32-9.377c-0.794-3.686-1.415-7.042-1.807-9.482
												C394.609,275.001,394.442,273.479,394.556,273.458z"/>
										</g>
									</g>
								</g>
							</g>
						</g>
					</g>
				</g>
				<g>
					<g>
						<g>
							<g>
								<g>
									<g>
										<path style="fill:#E8505B;" d="M414.701,360.872c0,0-20.471-9.57-21.632-27.019c-0.041-0.613,0.618-1.023,1.138-0.697
											C397.273,335.082,405.826,341.804,414.701,360.872z"/>
									</g>
								</g>
							</g>
						</g>
					</g>
					<g>
						<g>
							<g>
								<g>
									<g>
										<g>
											<path style="fill:#263238;" d="M397.489,339.67c0.094-0.069,1.084,1.097,2.631,3.019c1.724,2.176,3.748,4.73,5.984,7.553
												c2.244,2.815,4.274,5.362,6.003,7.531c1.549,1.916,2.515,3.098,2.424,3.183c-0.08,0.075-1.205-0.968-2.878-2.793
												c-1.669-1.827-3.878-4.435-6.213-7.396c-2.336-2.959-4.372-5.699-5.798-7.717
												C398.216,341.032,397.395,339.74,397.489,339.67z"/>
										</g>
									</g>
								</g>
							</g>
						</g>
					</g>
				</g>
				<g>
					<g>
						<g>
							<g>
								<g>
									<g>
										<g>
											<path style="fill:#263238;" d="M455.476,272.028c0.019,0.001,0.028,0.171,0.026,0.498
												c-0.01,0.393-0.022,0.868-0.036,1.445c-0.06,1.358-0.141,3.191-0.242,5.479c-0.264,4.817-0.632,11.533-1.072,19.567
												l-0.001,0.019l-0.005,0.027c-1.461,8.177-5.626,17.24-11.22,26.039c-4.103,6.482-8.404,12.375-12.114,17.856
												c-3.734,5.465-6.885,10.527-9.082,15.013c-2.211,4.479-3.497,8.328-4.249,11.017c-0.36,1.35-0.63,2.402-0.786,3.123
												c-0.168,0.717-0.271,1.093-0.299,1.088s0.017-0.39,0.132-1.121c0.102-0.733,0.322-1.802,0.634-3.172
												c0.658-2.73,1.868-6.644,4.03-11.195c2.146-4.557,5.268-9.688,8.975-15.188c3.684-5.52,7.963-11.422,12.044-17.871
												c5.565-8.756,9.707-17.681,11.223-25.727l-0.006,0.046c0.564-8.026,1.036-14.736,1.374-19.548
												c0.185-2.283,0.333-4.112,0.442-5.467c0.058-0.574,0.105-1.046,0.145-1.437
												C455.427,272.194,455.456,272.027,455.476,272.028z"/>
										</g>
									</g>
								</g>
							</g>
						</g>
					</g>
					<g>
						<g>
							<g>
								<g>
									<g>
										<g>
											<path style="fill:#E8505B;" d="M443.287,323.421c0,0,8.669-20.868-2.236-34.539c-0.383-0.48-1.147-0.339-1.311,0.253
												C438.775,292.622,436.988,303.353,443.287,323.421z"/>
										</g>
									</g>
								</g>
							</g>
						</g>
						<g>
							<g>
								<g>
									<g>
										<g>
											<g>
												<path style="fill:#263238;" d="M441.708,296.157c0.116-0.012,0.381,1.496,0.687,3.948
													c0.307,2.452,0.65,5.848,0.919,9.608c0.272,3.762,0.397,7.177,0.397,9.652c-0.005,2.475-0.133,4.005-0.243,4.003
													c-0.124-0.002-0.207-1.526-0.355-3.985c-0.185-2.769-0.402-6.018-0.642-9.61c-0.251-3.592-0.478-6.843-0.671-9.613
													C441.647,297.698,441.592,296.169,441.708,296.157z"/>
											</g>
										</g>
									</g>
								</g>
							</g>
						</g>
						<g style="opacity:0.3;">
							<g>
								<g>
									<g>
										<g>
											<path d="M443.287,323.421c0,0,8.669-20.868-2.236-34.539c-0.383-0.48-1.147-0.339-1.311,0.253
												C438.775,292.622,436.988,303.353,443.287,323.421z"/>
										</g>
									</g>
								</g>
							</g>
						</g>
					</g>
					<g>
						<g>
							<g>
								<g>
									<g>
										<g>
											<path style="fill:#E8505B;" d="M416.434,373.708c0,0,6.949-21.502-5.029-34.244c-0.421-0.448-1.17-0.245-1.285,0.358
												C409.44,343.378,408.53,354.218,416.434,373.708z"/>
										</g>
									</g>
								</g>
							</g>
						</g>
						<g>
							<g>
								<g>
									<g>
										<g>
											<g>
												<path style="fill:#263238;" d="M412.65,346.663c0.115-0.022,0.501,1.46,1.005,3.879
													c0.505,2.419,1.122,5.775,1.695,9.502c0.576,3.727,0.978,7.121,1.178,9.588c0.196,2.467,0.192,4.003,0.083,4.01
													c-0.123,0.008-0.33-1.504-0.677-3.943c-0.409-2.744-0.889-5.966-1.419-9.526c-0.541-3.56-1.031-6.782-1.448-9.527
													C412.714,348.203,412.535,346.684,412.65,346.663z"/>
											</g>
										</g>
									</g>
								</g>
							</g>
						</g>
						<g style="opacity:0.3;">
							<g>
								<g>
									<g>
										<g>
											<path d="M416.434,373.708c0,0,6.949-21.502-5.029-34.244c-0.421-0.448-1.17-0.245-1.285,0.358
												C409.44,343.378,408.53,354.218,416.434,373.708z"/>
										</g>
									</g>
								</g>
							</g>
						</g>
					</g>
					<g>
						<g>
							<g>
								<g>
									<g>
										<g>
											<path style="fill:#E8505B;" d="M454.328,297.918c0,0,18.512-12.959,16.644-30.347c-0.065-0.611-0.785-0.901-1.241-0.49
												C467.044,269.507,459.779,277.604,454.328,297.918z"/>
										</g>
									</g>
								</g>
							</g>
						</g>
						<g style="opacity:0.3;">
							<g>
								<g>
									<g>
										<g>
											<path d="M454.328,297.918c0,0,18.512-12.959,16.644-30.347c-0.065-0.611-0.785-0.901-1.241-0.49
												C467.044,269.507,459.779,277.604,454.328,297.918z"/>
										</g>
									</g>
								</g>
							</g>
						</g>
						<g>
							<g>
								<g>
									<g>
										<g>
											<g>
												<path style="fill:#263238;" d="M467.623,274.063c0.104,0.052-0.481,1.467-1.538,3.701
													c-1.056,2.234-2.589,5.284-4.379,8.602c-1.789,3.32-3.515,6.27-4.844,8.358c-1.332,2.086-2.261,3.308-2.352,3.248
													c-0.104-0.068,0.643-1.399,1.838-3.553c1.329-2.436,2.889-5.295,4.613-8.454c1.716-3.166,3.268-6.031,4.591-8.472
													C466.744,275.33,467.518,274.011,467.623,274.063z"/>
											</g>
										</g>
									</g>
								</g>
							</g>
						</g>
					</g>
					<g>
						<g>
							<g>
								<g>
									<g>
										<g>
											<path style="fill:#E8505B;" d="M423.899,352.391c0,0,22.327-3.481,28.309-19.914c0.21-0.577-0.309-1.155-0.899-0.986
												C447.828,332.485,437.74,336.555,423.899,352.391z"/>
										</g>
									</g>
								</g>
							</g>
						</g>
						<g style="opacity:0.3;">
							<g>
								<g>
									<g>
										<g>
											<path d="M423.899,352.391c0,0,22.327-3.481,28.309-19.914c0.21-0.577-0.309-1.155-0.899-0.986
												C447.828,332.485,437.74,336.555,423.899,352.391z"/>
										</g>
									</g>
								</g>
							</g>
						</g>
						<g>
							<g>
								<g>
									<g>
										<g>
											<g>
												<path style="fill:#263238;" d="M446.341,336.831c0.071,0.093-1.078,1.105-3.011,2.645
													c-1.932,1.54-4.651,3.604-7.72,5.794c-3.068,2.193-5.917,4.081-8.029,5.37c-2.115,1.286-3.487,1.974-3.543,1.88
													c-0.063-0.106,1.194-0.972,3.216-2.38c2.266-1.601,4.926-3.481,7.865-5.558c2.935-2.087,5.591-3.975,7.853-5.584
													C444.995,337.582,446.27,336.738,446.341,336.831z"/>
											</g>
										</g>
									</g>
								</g>
							</g>
						</g>
					</g>
				</g>
			</g>
			<g>
				<g>
					<g>
						<g>
							<g>
								<polygon style="fill:#455A64;" points="397.481,393.481 403.884,435.489 429.461,435.445 438.077,393.481 								"/>
							</g>
						</g>
					</g>
				</g>
			</g>
		</g>
		<g>
			<g>
				<g>
					<path style="fill:#263238;" d="M434.33,409.688c0.006,0.01-0.066,0.063-0.214,0.155c-0.151,0.087-0.366,0.238-0.674,0.385
						c-0.612,0.299-1.564,0.675-2.859,0.853c-1.287,0.176-2.928,0.143-4.703-0.441c-1.759-0.572-3.684-1.71-5.057-3.672
						c-0.655-0.994-1.112-2.197-1.185-3.514c-0.095-1.287,0.408-2.849,1.735-3.612c1.323-0.763,3.027-0.487,4.285,0.353
						c1.315,0.854,2.083,2.347,2.45,3.858c0.367,1.534,0.409,3.131,0.319,4.745c-0.104,1.615-0.402,3.27-1.037,4.851
						c-0.619,1.581-1.616,3.077-2.965,4.229c-1.342,1.147-3.063,1.969-4.922,2.056c-1.858,0.083-3.635-0.559-5.119-1.486
						c-1.493-0.938-2.761-2.125-3.819-3.452c-1.048-1.328-1.837-2.917-1.935-4.615c-0.081-1.667,0.506-3.402,1.815-4.449
						c1.327-1.078,3.208-1,4.532-0.277c1.364,0.688,2.377,1.993,2.615,3.424c0.491,2.882-1.19,5.482-3.234,6.65
						c-2.093,1.196-4.369,1.23-6.174,0.893c-1.834-0.357-3.281-1.079-4.4-1.722c-1.119-0.655-1.924-1.255-2.464-1.668
						c-0.537-0.417-0.803-0.653-0.79-0.672c0.016-0.02,0.311,0.179,0.872,0.557c0.563,0.374,1.39,0.935,2.514,1.544
						c1.122,0.599,2.561,1.268,4.335,1.574c1.749,0.292,3.922,0.209,5.853-0.934c1.877-1.094,3.39-3.555,2.916-6.111
						c-0.22-1.255-1.112-2.382-2.325-2.987c-1.189-0.629-2.761-0.663-3.85,0.234c-1.094,0.876-1.631,2.418-1.548,3.908
						c0.092,1.503,0.809,2.973,1.807,4.227c1.006,1.257,2.239,2.404,3.646,3.283c1.405,0.875,3.044,1.454,4.72,1.379
						c1.671-0.077,3.251-0.82,4.501-1.886c1.256-1.073,2.189-2.457,2.78-3.955c0.606-1.494,0.9-3.08,1.007-4.639
						c0.095-1.56,0.058-3.117-0.278-4.549c-0.336-1.418-1.032-2.755-2.164-3.497c-1.106-0.753-2.581-0.977-3.653-0.362
						c-1.092,0.617-1.551,1.903-1.484,3.086c0.052,1.195,0.462,2.334,1.059,3.263c1.258,1.853,3.086,2.992,4.768,3.573
						c1.699,0.598,3.287,0.672,4.545,0.542C433.097,410.52,434.294,409.585,434.33,409.688z"/>
				</g>
			</g>
		</g>
	</g>
</g>
</svg>
